<mxfile host="app.diagrams.net" modified="2024-04-28T03:29:16.839Z" agent="Mozilla/5.0 (Windows NT 10.0; Win64; x64) AppleWebKit/537.36 (KHTML, like Gecko) Chrome/124.0.0.0 Safari/537.36 Edg/124.0.0.0" version="24.3.1" etag="Cd7hb2iICX9j6up746MD" type="device">
  <diagram id="E_soCZdwU5kFe0LfVomH" name="第 1 页">
    <mxGraphModel dx="1131" dy="-246" grid="0" gridSize="10" guides="1" tooltips="1" connect="1" arrows="1" fold="1" page="1" pageScale="1" pageWidth="1100" pageHeight="450" math="0" shadow="0">
      <root>
        <mxCell id="0" />
        <mxCell id="1" parent="0" />
        <mxCell id="5" value="" style="shape=table;html=1;whiteSpace=wrap;startSize=0;container=1;collapsible=0;childLayout=tableLayout;direction=east;fontFamily=Times New Roman;movable=1;resizable=1;rotatable=1;deletable=1;editable=1;connectable=1;" parent="1" vertex="1">
          <mxGeometry x="101.74" y="1051.0699999999997" width="45" height="180" as="geometry" />
        </mxCell>
        <mxCell id="6" style="shape=tableRow;horizontal=0;startSize=0;swimlaneHead=0;swimlaneBody=0;top=0;left=0;bottom=0;right=0;collapsible=0;dropTarget=0;fillColor=none;points=[[0,0.5],[1,0.5]];portConstraint=eastwest;" parent="5" vertex="1">
          <mxGeometry width="45" height="20" as="geometry" />
        </mxCell>
        <mxCell id="7" value="&lt;span style=&quot;font-family: &amp;quot;Linux Libertine&amp;quot;;&quot;&gt;&lt;i&gt;src&lt;/i&gt;&lt;br&gt;&lt;/span&gt;" style="shape=partialRectangle;html=1;whiteSpace=wrap;connectable=0;fillColor=none;top=0;left=0;bottom=0;right=0;overflow=hidden;" parent="6" vertex="1">
          <mxGeometry width="45" height="20" as="geometry">
            <mxRectangle width="45" height="20" as="alternateBounds" />
          </mxGeometry>
        </mxCell>
        <mxCell id="69" style="shape=tableRow;horizontal=0;startSize=0;swimlaneHead=0;swimlaneBody=0;top=0;left=0;bottom=0;right=0;collapsible=0;dropTarget=0;fillColor=none;points=[[0,0.5],[1,0.5]];portConstraint=eastwest;" parent="5" vertex="1">
          <mxGeometry y="20" width="45" height="20" as="geometry" />
        </mxCell>
        <mxCell id="70" value="&lt;font face=&quot;Times New Roman&quot;&gt;1&lt;/font&gt;" style="shape=partialRectangle;html=1;whiteSpace=wrap;connectable=0;fillColor=none;top=0;left=0;bottom=0;right=0;overflow=hidden;strokeColor=#d6b656;" parent="69" vertex="1">
          <mxGeometry width="45" height="20" as="geometry">
            <mxRectangle width="45" height="20" as="alternateBounds" />
          </mxGeometry>
        </mxCell>
        <mxCell id="72" style="shape=tableRow;horizontal=0;startSize=0;swimlaneHead=0;swimlaneBody=0;top=0;left=0;bottom=0;right=0;collapsible=0;dropTarget=0;fillColor=none;points=[[0,0.5],[1,0.5]];portConstraint=eastwest;" parent="5" vertex="1">
          <mxGeometry y="40" width="45" height="20" as="geometry" />
        </mxCell>
        <mxCell id="73" value="&lt;font face=&quot;Times New Roman&quot;&gt;19&lt;/font&gt;" style="shape=partialRectangle;html=1;whiteSpace=wrap;connectable=0;fillColor=none;top=0;left=0;bottom=0;right=0;overflow=hidden;" parent="72" vertex="1">
          <mxGeometry width="45" height="20" as="geometry">
            <mxRectangle width="45" height="20" as="alternateBounds" />
          </mxGeometry>
        </mxCell>
        <mxCell id="75" style="shape=tableRow;horizontal=0;startSize=0;swimlaneHead=0;swimlaneBody=0;top=0;left=0;bottom=0;right=0;collapsible=0;dropTarget=0;fillColor=none;points=[[0,0.5],[1,0.5]];portConstraint=eastwest;" parent="5" vertex="1">
          <mxGeometry y="60" width="45" height="20" as="geometry" />
        </mxCell>
        <mxCell id="76" value="&lt;font face=&quot;Times New Roman&quot;&gt;31&lt;/font&gt;" style="shape=partialRectangle;html=1;whiteSpace=wrap;connectable=1;fillColor=#FFF2CC;top=0;left=0;bottom=0;right=0;overflow=hidden;movable=1;resizable=1;rotatable=1;deletable=1;editable=1;" parent="75" vertex="1">
          <mxGeometry width="45" height="20" as="geometry">
            <mxRectangle width="45" height="20" as="alternateBounds" />
          </mxGeometry>
        </mxCell>
        <mxCell id="78" style="shape=tableRow;horizontal=0;startSize=0;swimlaneHead=0;swimlaneBody=0;top=0;left=0;bottom=0;right=0;collapsible=0;dropTarget=0;fillColor=none;points=[[0,0.5],[1,0.5]];portConstraint=eastwest;" parent="5" vertex="1">
          <mxGeometry y="80" width="45" height="20" as="geometry" />
        </mxCell>
        <mxCell id="79" value="&lt;font face=&quot;Times New Roman&quot;&gt;22&lt;/font&gt;" style="shape=partialRectangle;html=1;whiteSpace=wrap;connectable=0;fillColor=none;top=0;left=0;bottom=0;right=0;overflow=hidden;" parent="78" vertex="1">
          <mxGeometry width="45" height="20" as="geometry">
            <mxRectangle width="45" height="20" as="alternateBounds" />
          </mxGeometry>
        </mxCell>
        <mxCell id="81" style="shape=tableRow;horizontal=0;startSize=0;swimlaneHead=0;swimlaneBody=0;top=0;left=0;bottom=0;right=0;collapsible=0;dropTarget=0;fillColor=none;points=[[0,0.5],[1,0.5]];portConstraint=eastwest;" parent="5" vertex="1">
          <mxGeometry y="100" width="45" height="20" as="geometry" />
        </mxCell>
        <mxCell id="82" value="&lt;font face=&quot;Times New Roman&quot;&gt;44&lt;/font&gt;" style="shape=partialRectangle;html=1;whiteSpace=wrap;connectable=0;fillColor=#cdeb8b;top=0;left=0;bottom=0;right=0;overflow=hidden;strokeColor=#36393d;" parent="81" vertex="1">
          <mxGeometry width="45" height="20" as="geometry">
            <mxRectangle width="45" height="20" as="alternateBounds" />
          </mxGeometry>
        </mxCell>
        <mxCell id="84" style="shape=tableRow;horizontal=0;startSize=0;swimlaneHead=0;swimlaneBody=0;top=0;left=0;bottom=0;right=0;collapsible=0;dropTarget=0;fillColor=none;points=[[0,0.5],[1,0.5]];portConstraint=eastwest;" parent="5" vertex="1">
          <mxGeometry y="120" width="45" height="20" as="geometry" />
        </mxCell>
        <mxCell id="85" value="&lt;font face=&quot;Times New Roman&quot;&gt;19&lt;/font&gt;" style="shape=partialRectangle;html=1;whiteSpace=wrap;connectable=0;fillColor=none;top=0;left=0;bottom=0;right=0;overflow=hidden;" parent="84" vertex="1">
          <mxGeometry width="45" height="20" as="geometry">
            <mxRectangle width="45" height="20" as="alternateBounds" />
          </mxGeometry>
        </mxCell>
        <mxCell id="87" style="shape=tableRow;horizontal=0;startSize=0;swimlaneHead=0;swimlaneBody=0;top=0;left=0;bottom=0;right=0;collapsible=0;dropTarget=0;fillColor=none;points=[[0,0.5],[1,0.5]];portConstraint=eastwest;" parent="5" vertex="1">
          <mxGeometry y="140" width="45" height="20" as="geometry" />
        </mxCell>
        <mxCell id="88" value="" style="shape=partialRectangle;html=1;whiteSpace=wrap;connectable=0;fillColor=none;top=0;left=0;bottom=0;right=0;overflow=hidden;" parent="87" vertex="1">
          <mxGeometry width="45" height="20" as="geometry">
            <mxRectangle width="45" height="20" as="alternateBounds" />
          </mxGeometry>
        </mxCell>
        <mxCell id="90" style="shape=tableRow;horizontal=0;startSize=0;swimlaneHead=0;swimlaneBody=0;top=0;left=0;bottom=0;right=0;collapsible=0;dropTarget=0;fillColor=none;points=[[0,0.5],[1,0.5]];portConstraint=eastwest;" parent="5" vertex="1">
          <mxGeometry y="160" width="45" height="20" as="geometry" />
        </mxCell>
        <mxCell id="91" value="" style="shape=partialRectangle;html=1;whiteSpace=wrap;connectable=0;fillColor=none;top=0;left=0;bottom=0;right=0;overflow=hidden;" parent="90" vertex="1">
          <mxGeometry width="45" height="20" as="geometry">
            <mxRectangle width="45" height="20" as="alternateBounds" />
          </mxGeometry>
        </mxCell>
        <mxCell id="93" value="" style="shape=table;html=1;whiteSpace=wrap;startSize=0;container=1;collapsible=0;childLayout=tableLayout;direction=east;movable=1;resizable=1;rotatable=1;deletable=1;editable=1;connectable=1;" parent="1" vertex="1">
          <mxGeometry x="185.74" y="1051.07" width="45" height="180" as="geometry" />
        </mxCell>
        <mxCell id="94" style="shape=tableRow;horizontal=0;startSize=0;swimlaneHead=0;swimlaneBody=0;top=0;left=0;bottom=0;right=0;collapsible=0;dropTarget=0;fillColor=none;points=[[0,0.5],[1,0.5]];portConstraint=eastwest;movable=1;resizable=1;rotatable=1;deletable=1;editable=1;connectable=1;locked=0;" parent="93" vertex="1">
          <mxGeometry width="45" height="20" as="geometry" />
        </mxCell>
        <mxCell id="95" value="&lt;font data-font-src=&quot;https://fonts.googleapis.com/css?family=Linux+Libertine&quot; face=&quot;Linux Libertine&quot;&gt;&lt;i&gt;src&lt;/i&gt;&lt;/font&gt;" style="shape=partialRectangle;html=1;whiteSpace=wrap;connectable=1;fillColor=none;top=0;left=0;bottom=0;right=0;overflow=hidden;movable=1;resizable=1;rotatable=1;deletable=1;editable=1;locked=0;" parent="94" vertex="1">
          <mxGeometry width="45" height="20" as="geometry">
            <mxRectangle width="45" height="20" as="alternateBounds" />
          </mxGeometry>
        </mxCell>
        <mxCell id="97" style="shape=tableRow;horizontal=0;startSize=0;swimlaneHead=0;swimlaneBody=0;top=0;left=0;bottom=0;right=0;collapsible=0;dropTarget=0;fillColor=none;points=[[0,0.5],[1,0.5]];portConstraint=eastwest;" parent="93" vertex="1">
          <mxGeometry y="20" width="45" height="20" as="geometry" />
        </mxCell>
        <mxCell id="98" value="&lt;font face=&quot;Times New Roman&quot;&gt;31&lt;/font&gt;" style="shape=partialRectangle;html=1;whiteSpace=wrap;connectable=1;fillColor=#FFF2CC;top=0;left=0;bottom=0;right=0;overflow=hidden;movable=1;resizable=1;rotatable=1;deletable=1;editable=1;" parent="97" vertex="1">
          <mxGeometry width="45" height="20" as="geometry">
            <mxRectangle width="45" height="20" as="alternateBounds" />
          </mxGeometry>
        </mxCell>
        <mxCell id="100" style="shape=tableRow;horizontal=0;startSize=0;swimlaneHead=0;swimlaneBody=0;top=0;left=0;bottom=0;right=0;collapsible=0;dropTarget=0;fillColor=none;points=[[0,0.5],[1,0.5]];portConstraint=eastwest;" parent="93" vertex="1">
          <mxGeometry y="40" width="45" height="20" as="geometry" />
        </mxCell>
        <mxCell id="101" value="&lt;font face=&quot;Times New Roman&quot;&gt;4&lt;/font&gt;" style="shape=partialRectangle;html=1;whiteSpace=wrap;connectable=0;fillColor=none;top=0;left=0;bottom=0;right=0;overflow=hidden;" parent="100" vertex="1">
          <mxGeometry width="45" height="20" as="geometry">
            <mxRectangle width="45" height="20" as="alternateBounds" />
          </mxGeometry>
        </mxCell>
        <mxCell id="103" style="shape=tableRow;horizontal=0;startSize=0;swimlaneHead=0;swimlaneBody=0;top=0;left=0;bottom=0;right=0;collapsible=0;dropTarget=0;fillColor=none;points=[[0,0.5],[1,0.5]];portConstraint=eastwest;" parent="93" vertex="1">
          <mxGeometry y="60" width="45" height="20" as="geometry" />
        </mxCell>
        <mxCell id="104" value="&lt;font face=&quot;Times New Roman&quot;&gt;5&lt;/font&gt;" style="shape=partialRectangle;html=1;whiteSpace=wrap;connectable=0;fillColor=none;top=0;left=0;bottom=0;right=0;overflow=hidden;strokeColor=#d6b656;" parent="103" vertex="1">
          <mxGeometry width="45" height="20" as="geometry">
            <mxRectangle width="45" height="20" as="alternateBounds" />
          </mxGeometry>
        </mxCell>
        <mxCell id="106" style="shape=tableRow;horizontal=0;startSize=0;swimlaneHead=0;swimlaneBody=0;top=0;left=0;bottom=0;right=0;collapsible=0;dropTarget=0;fillColor=none;points=[[0,0.5],[1,0.5]];portConstraint=eastwest;" parent="93" vertex="1">
          <mxGeometry y="80" width="45" height="20" as="geometry" />
        </mxCell>
        <mxCell id="107" value="&lt;font face=&quot;Times New Roman&quot;&gt;22&lt;/font&gt;" style="shape=partialRectangle;html=1;whiteSpace=wrap;connectable=0;fillColor=none;top=0;left=0;bottom=0;right=0;overflow=hidden;" parent="106" vertex="1">
          <mxGeometry width="45" height="20" as="geometry">
            <mxRectangle width="45" height="20" as="alternateBounds" />
          </mxGeometry>
        </mxCell>
        <mxCell id="109" style="shape=tableRow;horizontal=0;startSize=0;swimlaneHead=0;swimlaneBody=0;top=0;left=0;bottom=0;right=0;collapsible=0;dropTarget=0;fillColor=none;points=[[0,0.5],[1,0.5]];portConstraint=eastwest;" parent="93" vertex="1">
          <mxGeometry y="100" width="45" height="20" as="geometry" />
        </mxCell>
        <mxCell id="110" value="&lt;font face=&quot;Times New Roman&quot;&gt;12&lt;/font&gt;" style="shape=partialRectangle;html=1;whiteSpace=wrap;connectable=0;fillColor=none;top=0;left=0;bottom=0;right=0;overflow=hidden;" parent="109" vertex="1">
          <mxGeometry width="45" height="20" as="geometry">
            <mxRectangle width="45" height="20" as="alternateBounds" />
          </mxGeometry>
        </mxCell>
        <mxCell id="112" style="shape=tableRow;horizontal=0;startSize=0;swimlaneHead=0;swimlaneBody=0;top=0;left=0;bottom=0;right=0;collapsible=0;dropTarget=0;fillColor=none;points=[[0,0.5],[1,0.5]];portConstraint=eastwest;" parent="93" vertex="1">
          <mxGeometry y="120" width="45" height="20" as="geometry" />
        </mxCell>
        <mxCell id="113" value="&lt;font face=&quot;Times New Roman&quot;&gt;3&lt;/font&gt;" style="shape=partialRectangle;html=1;whiteSpace=wrap;connectable=0;fillColor=none;top=0;left=0;bottom=0;right=0;overflow=hidden;" parent="112" vertex="1">
          <mxGeometry width="45" height="20" as="geometry">
            <mxRectangle width="45" height="20" as="alternateBounds" />
          </mxGeometry>
        </mxCell>
        <mxCell id="115" style="shape=tableRow;horizontal=0;startSize=0;swimlaneHead=0;swimlaneBody=0;top=0;left=0;bottom=0;right=0;collapsible=0;dropTarget=0;fillColor=none;points=[[0,0.5],[1,0.5]];portConstraint=eastwest;" parent="93" vertex="1">
          <mxGeometry y="140" width="45" height="20" as="geometry" />
        </mxCell>
        <mxCell id="116" value="&lt;font face=&quot;Times New Roman&quot;&gt;6&lt;/font&gt;" style="shape=partialRectangle;html=1;whiteSpace=wrap;connectable=0;fillColor=none;top=0;left=0;bottom=0;right=0;overflow=hidden;" parent="115" vertex="1">
          <mxGeometry width="45" height="20" as="geometry">
            <mxRectangle width="45" height="20" as="alternateBounds" />
          </mxGeometry>
        </mxCell>
        <mxCell id="118" style="shape=tableRow;horizontal=0;startSize=0;swimlaneHead=0;swimlaneBody=0;top=0;left=0;bottom=0;right=0;collapsible=0;dropTarget=0;fillColor=none;points=[[0,0.5],[1,0.5]];portConstraint=eastwest;" parent="93" vertex="1">
          <mxGeometry y="160" width="45" height="20" as="geometry" />
        </mxCell>
        <mxCell id="119" value="&lt;font face=&quot;Times New Roman&quot;&gt;44&lt;/font&gt;" style="shape=partialRectangle;html=1;whiteSpace=wrap;connectable=0;fillColor=#cdeb8b;top=0;left=0;bottom=0;right=0;overflow=hidden;strokeColor=#36393d;" parent="118" vertex="1">
          <mxGeometry width="45" height="20" as="geometry">
            <mxRectangle width="45" height="20" as="alternateBounds" />
          </mxGeometry>
        </mxCell>
        <mxCell id="125" style="edgeStyle=orthogonalEdgeStyle;html=1;entryX=1;entryY=0.5;entryDx=0;entryDy=0;strokeColor=#66CC00;fontColor=#000000;startArrow=blockThin;startFill=1;endArrow=blockThin;endFill=1;exitX=0;exitY=0.5;exitDx=0;exitDy=0;" parent="1" target="1110" edge="1">
          <mxGeometry relative="1" as="geometry">
            <mxPoint x="185.74" y="1221.07" as="sourcePoint" />
            <mxPoint x="157.7399999999999" y="1167.9299999999996" as="targetPoint" />
            <Array as="points">
              <mxPoint x="166.74" y="1221.07" />
              <mxPoint x="166.74" y="1161.07" />
            </Array>
          </mxGeometry>
        </mxCell>
        <mxCell id="126" value="&lt;font style=&quot;font-size: 14px;&quot; data-font-src=&quot;https://fonts.googleapis.com/css?family=Linux+Libertine&quot; face=&quot;Linux Libertine&quot;&gt;(a) Inter-stage hazard&amp;nbsp;&lt;/font&gt;" style="text;html=1;strokeColor=none;fillColor=none;align=center;verticalAlign=middle;whiteSpace=wrap;rounded=0;fontColor=#000000;fontFamily=Times New Roman;" parent="1" vertex="1">
          <mxGeometry x="155.54000000000002" y="1266" width="173.93" height="30" as="geometry" />
        </mxCell>
        <mxCell id="127" value="" style="shape=table;html=1;whiteSpace=wrap;startSize=0;container=1;collapsible=0;childLayout=tableLayout;direction=east;fontFamily=Times New Roman;" parent="1" vertex="1">
          <mxGeometry x="660" y="1060.05" width="79" height="200" as="geometry" />
        </mxCell>
        <mxCell id="C4AZiwXbv_r8diAMs2qV-752" style="shape=tableRow;horizontal=0;startSize=0;swimlaneHead=0;swimlaneBody=0;top=0;left=0;bottom=0;right=0;collapsible=0;dropTarget=0;fillColor=none;points=[[0,0.5],[1,0.5]];portConstraint=eastwest;" parent="127" vertex="1">
          <mxGeometry width="79" height="20" as="geometry" />
        </mxCell>
        <mxCell id="C4AZiwXbv_r8diAMs2qV-753" value="&lt;font data-font-src=&quot;https://fonts.googleapis.com/css?family=Linux+Libertine&quot; face=&quot;Linux Libertine&quot;&gt;edge in&lt;/font&gt;" style="shape=partialRectangle;html=1;whiteSpace=wrap;connectable=0;fillColor=none;top=0;left=0;bottom=0;right=0;overflow=hidden;rowspan=1;colspan=2;" parent="C4AZiwXbv_r8diAMs2qV-752" vertex="1">
          <mxGeometry width="79" height="20" as="geometry">
            <mxRectangle width="37" height="20" as="alternateBounds" />
          </mxGeometry>
        </mxCell>
        <mxCell id="C4AZiwXbv_r8diAMs2qV-754" style="shape=partialRectangle;html=1;whiteSpace=wrap;connectable=0;fillColor=none;top=0;left=0;bottom=0;right=0;overflow=hidden;" parent="C4AZiwXbv_r8diAMs2qV-752" vertex="1" visible="0">
          <mxGeometry x="37" width="42" height="20" as="geometry">
            <mxRectangle width="42" height="20" as="alternateBounds" />
          </mxGeometry>
        </mxCell>
        <mxCell id="128" style="shape=tableRow;horizontal=0;startSize=0;swimlaneHead=0;swimlaneBody=0;top=0;left=0;bottom=0;right=0;collapsible=0;dropTarget=0;fillColor=none;points=[[0,0.5],[1,0.5]];portConstraint=eastwest;" parent="127" vertex="1">
          <mxGeometry y="20" width="79" height="20" as="geometry" />
        </mxCell>
        <mxCell id="400" value="&lt;font data-font-src=&quot;https://fonts.googleapis.com/css?family=Linux+Libertine&quot; face=&quot;Linux Libertine&quot;&gt;src&lt;/font&gt;" style="shape=partialRectangle;html=1;whiteSpace=wrap;connectable=0;fillColor=none;top=0;left=0;bottom=0;right=0;overflow=hidden;" parent="128" vertex="1">
          <mxGeometry width="37" height="20" as="geometry">
            <mxRectangle width="37" height="20" as="alternateBounds" />
          </mxGeometry>
        </mxCell>
        <mxCell id="130" value="&lt;font data-font-src=&quot;https://fonts.googleapis.com/css?family=Linux+Libertine&quot; face=&quot;Linux Libertine&quot;&gt;value&lt;/font&gt;" style="shape=partialRectangle;html=1;whiteSpace=wrap;connectable=0;fillColor=none;top=0;left=0;bottom=0;right=0;overflow=hidden;" parent="128" vertex="1">
          <mxGeometry x="37" width="42" height="20" as="geometry">
            <mxRectangle width="42" height="20" as="alternateBounds" />
          </mxGeometry>
        </mxCell>
        <mxCell id="131" style="shape=tableRow;horizontal=0;startSize=0;swimlaneHead=0;swimlaneBody=0;top=0;left=0;bottom=0;right=0;collapsible=0;dropTarget=0;fillColor=none;points=[[0,0.5],[1,0.5]];portConstraint=eastwest;" parent="127" vertex="1">
          <mxGeometry y="40" width="79" height="20" as="geometry" />
        </mxCell>
        <mxCell id="401" value="&lt;font face=&quot;Times New Roman&quot;&gt;31&lt;/font&gt;" style="shape=partialRectangle;html=1;whiteSpace=wrap;connectable=0;fillColor=none;top=0;left=0;bottom=0;right=0;overflow=hidden;gradientColor=#ffd966;strokeColor=#d6b656;" parent="131" vertex="1">
          <mxGeometry width="37" height="20" as="geometry">
            <mxRectangle width="37" height="20" as="alternateBounds" />
          </mxGeometry>
        </mxCell>
        <mxCell id="133" value="" style="shape=partialRectangle;html=1;whiteSpace=wrap;connectable=0;fillColor=none;top=0;left=0;bottom=0;right=0;overflow=hidden;gradientColor=#ffd966;strokeColor=#d6b656;" parent="131" vertex="1">
          <mxGeometry x="37" width="42" height="20" as="geometry">
            <mxRectangle width="42" height="20" as="alternateBounds" />
          </mxGeometry>
        </mxCell>
        <mxCell id="134" style="shape=tableRow;horizontal=0;startSize=0;swimlaneHead=0;swimlaneBody=0;top=0;left=0;bottom=0;right=0;collapsible=0;dropTarget=0;fillColor=none;points=[[0,0.5],[1,0.5]];portConstraint=eastwest;" parent="127" vertex="1">
          <mxGeometry y="60" width="79" height="20" as="geometry" />
        </mxCell>
        <mxCell id="402" value="&lt;font face=&quot;Times New Roman&quot;&gt;19&lt;/font&gt;" style="shape=partialRectangle;html=1;whiteSpace=wrap;connectable=0;fillColor=none;top=0;left=0;bottom=0;right=0;overflow=hidden;" parent="134" vertex="1">
          <mxGeometry width="37" height="20" as="geometry">
            <mxRectangle width="37" height="20" as="alternateBounds" />
          </mxGeometry>
        </mxCell>
        <mxCell id="136" value="" style="shape=partialRectangle;html=1;whiteSpace=wrap;connectable=0;fillColor=none;top=0;left=0;bottom=0;right=0;overflow=hidden;" parent="134" vertex="1">
          <mxGeometry x="37" width="42" height="20" as="geometry">
            <mxRectangle width="42" height="20" as="alternateBounds" />
          </mxGeometry>
        </mxCell>
        <mxCell id="137" style="shape=tableRow;horizontal=0;startSize=0;swimlaneHead=0;swimlaneBody=0;top=0;left=0;bottom=0;right=0;collapsible=0;dropTarget=0;fillColor=#cce5ff;points=[[0,0.5],[1,0.5]];portConstraint=eastwest;strokeColor=#36393d;" parent="127" vertex="1">
          <mxGeometry y="80" width="79" height="20" as="geometry" />
        </mxCell>
        <mxCell id="403" value="1" style="shape=partialRectangle;html=1;whiteSpace=wrap;connectable=0;fillColor=#cce5ff;top=0;left=0;bottom=0;right=0;overflow=hidden;fontFamily=Times New Roman;strokeColor=#36393d;" parent="137" vertex="1">
          <mxGeometry width="37" height="20" as="geometry">
            <mxRectangle width="37" height="20" as="alternateBounds" />
          </mxGeometry>
        </mxCell>
        <mxCell id="139" value="&lt;font face=&quot;Times New Roman&quot;&gt;3&lt;/font&gt;" style="shape=partialRectangle;html=1;whiteSpace=wrap;connectable=0;fillColor=none;top=0;left=0;bottom=0;right=0;overflow=hidden;" parent="137" vertex="1">
          <mxGeometry x="37" width="42" height="20" as="geometry">
            <mxRectangle width="42" height="20" as="alternateBounds" />
          </mxGeometry>
        </mxCell>
        <mxCell id="140" style="shape=tableRow;horizontal=0;startSize=0;swimlaneHead=0;swimlaneBody=0;top=0;left=0;bottom=0;right=0;collapsible=0;dropTarget=0;fillColor=none;points=[[0,0.5],[1,0.5]];portConstraint=eastwest;" parent="127" vertex="1">
          <mxGeometry y="100" width="79" height="20" as="geometry" />
        </mxCell>
        <mxCell id="404" value="&lt;font face=&quot;Times New Roman&quot;&gt;22&lt;/font&gt;" style="shape=partialRectangle;html=1;whiteSpace=wrap;connectable=0;fillColor=none;top=0;left=0;bottom=0;right=0;overflow=hidden;" parent="140" vertex="1">
          <mxGeometry width="37" height="20" as="geometry">
            <mxRectangle width="37" height="20" as="alternateBounds" />
          </mxGeometry>
        </mxCell>
        <mxCell id="142" value="" style="shape=partialRectangle;html=1;whiteSpace=wrap;connectable=0;fillColor=none;top=0;left=0;bottom=0;right=0;overflow=hidden;" parent="140" vertex="1">
          <mxGeometry x="37" width="42" height="20" as="geometry">
            <mxRectangle width="42" height="20" as="alternateBounds" />
          </mxGeometry>
        </mxCell>
        <mxCell id="143" style="shape=tableRow;horizontal=0;startSize=0;swimlaneHead=0;swimlaneBody=0;top=0;left=0;bottom=0;right=0;collapsible=0;dropTarget=0;fillColor=none;points=[[0,0.5],[1,0.5]];portConstraint=eastwest;" parent="127" vertex="1">
          <mxGeometry y="120" width="79" height="20" as="geometry" />
        </mxCell>
        <mxCell id="405" value="&lt;font face=&quot;Times New Roman&quot;&gt;7&lt;/font&gt;" style="shape=partialRectangle;html=1;whiteSpace=wrap;connectable=0;fillColor=#ffcccc;top=0;left=0;bottom=0;right=0;overflow=hidden;strokeColor=#36393d;" parent="143" vertex="1">
          <mxGeometry width="37" height="20" as="geometry">
            <mxRectangle width="37" height="20" as="alternateBounds" />
          </mxGeometry>
        </mxCell>
        <mxCell id="145" value="&lt;font face=&quot;Times New Roman&quot;&gt;62&lt;/font&gt;" style="shape=partialRectangle;html=1;whiteSpace=wrap;connectable=0;fillColor=#ffcccc;top=0;left=0;bottom=0;right=0;overflow=hidden;strokeColor=#36393d;" parent="143" vertex="1">
          <mxGeometry x="37" width="42" height="20" as="geometry">
            <mxRectangle width="42" height="20" as="alternateBounds" />
          </mxGeometry>
        </mxCell>
        <mxCell id="146" style="shape=tableRow;horizontal=0;startSize=0;swimlaneHead=0;swimlaneBody=0;top=0;left=0;bottom=0;right=0;collapsible=0;dropTarget=0;fillColor=none;points=[[0,0.5],[1,0.5]];portConstraint=eastwest;" parent="127" vertex="1">
          <mxGeometry y="140" width="79" height="20" as="geometry" />
        </mxCell>
        <mxCell id="406" value="&lt;font face=&quot;Times New Roman&quot;&gt;19&lt;/font&gt;" style="shape=partialRectangle;html=1;whiteSpace=wrap;connectable=0;fillColor=none;top=0;left=0;bottom=0;right=0;overflow=hidden;" parent="146" vertex="1">
          <mxGeometry width="37" height="20" as="geometry">
            <mxRectangle width="37" height="20" as="alternateBounds" />
          </mxGeometry>
        </mxCell>
        <mxCell id="148" value="" style="shape=partialRectangle;html=1;whiteSpace=wrap;connectable=0;fillColor=none;top=0;left=0;bottom=0;right=0;overflow=hidden;" parent="146" vertex="1">
          <mxGeometry x="37" width="42" height="20" as="geometry">
            <mxRectangle width="42" height="20" as="alternateBounds" />
          </mxGeometry>
        </mxCell>
        <mxCell id="149" style="shape=tableRow;horizontal=0;startSize=0;swimlaneHead=0;swimlaneBody=0;top=0;left=0;bottom=0;right=0;collapsible=0;dropTarget=0;fillColor=none;points=[[0,0.5],[1,0.5]];portConstraint=eastwest;" parent="127" vertex="1">
          <mxGeometry y="160" width="79" height="20" as="geometry" />
        </mxCell>
        <mxCell id="407" value="1" style="shape=partialRectangle;html=1;whiteSpace=wrap;connectable=0;fillColor=#cce5ff;top=0;left=0;bottom=0;right=0;overflow=hidden;fontFamily=Times New Roman;strokeColor=#36393d;" parent="149" vertex="1">
          <mxGeometry width="37" height="20" as="geometry">
            <mxRectangle width="37" height="20" as="alternateBounds" />
          </mxGeometry>
        </mxCell>
        <mxCell id="151" value="&lt;font face=&quot;Times New Roman&quot;&gt;29&lt;/font&gt;" style="shape=partialRectangle;html=1;whiteSpace=wrap;connectable=0;fillColor=#cce5ff;top=0;left=0;bottom=0;right=0;overflow=hidden;strokeColor=#36393d;" parent="149" vertex="1">
          <mxGeometry x="37" width="42" height="20" as="geometry">
            <mxRectangle width="42" height="20" as="alternateBounds" />
          </mxGeometry>
        </mxCell>
        <mxCell id="152" style="shape=tableRow;horizontal=0;startSize=0;swimlaneHead=0;swimlaneBody=0;top=0;left=0;bottom=0;right=0;collapsible=0;dropTarget=0;fillColor=none;points=[[0,0.5],[1,0.5]];portConstraint=eastwest;" parent="127" vertex="1">
          <mxGeometry y="180" width="79" height="20" as="geometry" />
        </mxCell>
        <mxCell id="408" value="&lt;font face=&quot;Times New Roman&quot;&gt;7&lt;/font&gt;" style="shape=partialRectangle;html=1;whiteSpace=wrap;connectable=0;fillColor=#ffcccc;top=0;left=0;bottom=0;right=0;overflow=hidden;strokeColor=#36393d;" parent="152" vertex="1">
          <mxGeometry width="37" height="20" as="geometry">
            <mxRectangle width="37" height="20" as="alternateBounds" />
          </mxGeometry>
        </mxCell>
        <mxCell id="154" value="&lt;font face=&quot;Times New Roman&quot;&gt;12&lt;/font&gt;" style="shape=partialRectangle;html=1;whiteSpace=wrap;connectable=0;fillColor=#ffcccc;top=0;left=0;bottom=0;right=0;overflow=hidden;strokeColor=#36393d;" parent="152" vertex="1">
          <mxGeometry x="37" width="42" height="20" as="geometry">
            <mxRectangle width="42" height="20" as="alternateBounds" />
          </mxGeometry>
        </mxCell>
        <mxCell id="606" style="edgeStyle=orthogonalEdgeStyle;html=1;strokeColor=#FF9933;fontFamily=Times New Roman;fontColor=#000000;startArrow=blockThin;startFill=1;endArrow=blockThin;endFill=1;entryX=0.998;entryY=0.955;entryDx=0;entryDy=0;entryPerimeter=0;exitX=1.008;exitY=0.578;exitDx=0;exitDy=0;exitPerimeter=0;" parent="127" source="143" target="127" edge="1">
          <mxGeometry relative="1" as="geometry">
            <mxPoint x="142.0052604675294" y="171.33332316080737" as="targetPoint" />
            <Array as="points">
              <mxPoint x="98" y="132" />
              <mxPoint x="98" y="191" />
            </Array>
            <mxPoint x="79" y="130" as="sourcePoint" />
          </mxGeometry>
        </mxCell>
        <mxCell id="161" value="&lt;font style=&quot;font-size: 14px;&quot; data-font-src=&quot;https://fonts.googleapis.com/css?family=Linux+Libertine&quot; face=&quot;Linux Libertine&quot;&gt;(b) Intra-stage hazard&amp;nbsp;&lt;/font&gt;" style="text;html=1;strokeColor=none;fillColor=none;align=center;verticalAlign=middle;whiteSpace=wrap;rounded=0;fontColor=#000000;fontFamily=Times New Roman;" parent="1" vertex="1">
          <mxGeometry x="778.65" y="1310" width="154.34" height="30" as="geometry" />
        </mxCell>
        <mxCell id="193" value="" style="childLayout=tableLayout;recursiveResize=0;shadow=0;fillColor=none;strokeColor=default;fontFamily=Times New Roman;fontColor=#000000;strokeWidth=0.5;" parent="1" vertex="1">
          <mxGeometry x="470.11000000000007" y="1091" width="160" height="160" as="geometry" />
        </mxCell>
        <mxCell id="194" value="" style="shape=tableRow;horizontal=0;startSize=0;swimlaneHead=0;swimlaneBody=0;top=0;left=0;bottom=0;right=0;dropTarget=0;collapsible=0;recursiveResize=0;expand=0;fontStyle=0;fillColor=none;strokeColor=inherit;fontFamily=Times New Roman;fontColor=#000000;" parent="193" vertex="1">
          <mxGeometry width="160" height="20" as="geometry" />
        </mxCell>
        <mxCell id="195" value="" style="connectable=0;recursiveResize=0;strokeColor=inherit;fillColor=none;align=center;whiteSpace=wrap;html=1;fontFamily=Times New Roman;fontColor=#000000;" parent="194" vertex="1">
          <mxGeometry width="20" height="20" as="geometry">
            <mxRectangle width="20" height="20" as="alternateBounds" />
          </mxGeometry>
        </mxCell>
        <mxCell id="206" style="connectable=0;recursiveResize=0;strokeColor=inherit;fillColor=none;align=center;whiteSpace=wrap;html=1;fontFamily=Times New Roman;fontColor=#000000;" parent="194" vertex="1">
          <mxGeometry x="20" width="20" height="20" as="geometry">
            <mxRectangle width="20" height="20" as="alternateBounds" />
          </mxGeometry>
        </mxCell>
        <mxCell id="207" style="connectable=0;recursiveResize=0;strokeColor=inherit;fillColor=none;align=center;whiteSpace=wrap;html=1;fontFamily=Times New Roman;fontColor=#000000;" parent="194" vertex="1">
          <mxGeometry x="40" width="20" height="20" as="geometry">
            <mxRectangle width="20" height="20" as="alternateBounds" />
          </mxGeometry>
        </mxCell>
        <mxCell id="208" style="connectable=0;recursiveResize=0;strokeColor=inherit;fillColor=none;align=center;whiteSpace=wrap;html=1;fontFamily=Times New Roman;fontColor=#000000;" parent="194" vertex="1">
          <mxGeometry x="60" width="20" height="20" as="geometry">
            <mxRectangle width="20" height="20" as="alternateBounds" />
          </mxGeometry>
        </mxCell>
        <mxCell id="209" style="connectable=0;recursiveResize=0;strokeColor=inherit;fillColor=none;align=center;whiteSpace=wrap;html=1;fontFamily=Times New Roman;fontColor=#000000;" parent="194" vertex="1">
          <mxGeometry x="80" width="20" height="20" as="geometry">
            <mxRectangle width="20" height="20" as="alternateBounds" />
          </mxGeometry>
        </mxCell>
        <mxCell id="210" style="connectable=0;recursiveResize=0;strokeColor=inherit;fillColor=none;align=center;whiteSpace=wrap;html=1;fontFamily=Times New Roman;fontColor=#000000;" parent="194" vertex="1">
          <mxGeometry x="100" width="20" height="20" as="geometry">
            <mxRectangle width="20" height="20" as="alternateBounds" />
          </mxGeometry>
        </mxCell>
        <mxCell id="211" style="connectable=0;recursiveResize=0;strokeColor=inherit;fillColor=none;align=center;whiteSpace=wrap;html=1;fontFamily=Times New Roman;fontColor=#000000;" parent="194" vertex="1">
          <mxGeometry x="120" width="20" height="20" as="geometry">
            <mxRectangle width="20" height="20" as="alternateBounds" />
          </mxGeometry>
        </mxCell>
        <mxCell id="212" value="" style="connectable=0;recursiveResize=0;strokeColor=inherit;fillColor=none;align=center;whiteSpace=wrap;html=1;fontFamily=Times New Roman;fontColor=#000000;" parent="194" vertex="1">
          <mxGeometry x="140" width="20" height="20" as="geometry">
            <mxRectangle width="20" height="20" as="alternateBounds" />
          </mxGeometry>
        </mxCell>
        <mxCell id="213" style="shape=tableRow;horizontal=0;startSize=0;swimlaneHead=0;swimlaneBody=0;top=0;left=0;bottom=0;right=0;dropTarget=0;collapsible=0;recursiveResize=0;expand=0;fontStyle=0;fillColor=none;strokeColor=inherit;fontFamily=Times New Roman;fontColor=#000000;" parent="193" vertex="1">
          <mxGeometry y="20" width="160" height="20" as="geometry" />
        </mxCell>
        <mxCell id="214" style="connectable=0;recursiveResize=0;strokeColor=inherit;fillColor=none;align=center;whiteSpace=wrap;html=1;fontFamily=Times New Roman;fontColor=#000000;" parent="213" vertex="1">
          <mxGeometry width="20" height="20" as="geometry">
            <mxRectangle width="20" height="20" as="alternateBounds" />
          </mxGeometry>
        </mxCell>
        <mxCell id="215" style="connectable=0;recursiveResize=0;strokeColor=inherit;fillColor=none;align=center;whiteSpace=wrap;html=1;fontFamily=Times New Roman;fontColor=#000000;" parent="213" vertex="1">
          <mxGeometry x="20" width="20" height="20" as="geometry">
            <mxRectangle width="20" height="20" as="alternateBounds" />
          </mxGeometry>
        </mxCell>
        <mxCell id="216" value="3" style="connectable=0;recursiveResize=0;strokeColor=#36393d;fillColor=#cce5ff;align=center;whiteSpace=wrap;html=1;fontFamily=Times New Roman;" parent="213" vertex="1">
          <mxGeometry x="40" width="20" height="20" as="geometry">
            <mxRectangle width="20" height="20" as="alternateBounds" />
          </mxGeometry>
        </mxCell>
        <mxCell id="217" style="connectable=0;recursiveResize=0;strokeColor=inherit;fillColor=none;align=center;whiteSpace=wrap;html=1;fontFamily=Times New Roman;fontColor=#000000;" parent="213" vertex="1">
          <mxGeometry x="60" width="20" height="20" as="geometry">
            <mxRectangle width="20" height="20" as="alternateBounds" />
          </mxGeometry>
        </mxCell>
        <mxCell id="218" style="connectable=0;recursiveResize=0;strokeColor=inherit;fillColor=none;align=center;whiteSpace=wrap;html=1;fontFamily=Times New Roman;fontColor=#000000;" parent="213" vertex="1">
          <mxGeometry x="80" width="20" height="20" as="geometry">
            <mxRectangle width="20" height="20" as="alternateBounds" />
          </mxGeometry>
        </mxCell>
        <mxCell id="219" style="connectable=0;recursiveResize=0;strokeColor=inherit;fillColor=none;align=center;whiteSpace=wrap;html=1;fontFamily=Times New Roman;fontColor=#000000;" parent="213" vertex="1">
          <mxGeometry x="100" width="20" height="20" as="geometry">
            <mxRectangle width="20" height="20" as="alternateBounds" />
          </mxGeometry>
        </mxCell>
        <mxCell id="220" value="29" style="connectable=0;recursiveResize=0;strokeColor=#36393d;fillColor=#cce5ff;align=center;whiteSpace=wrap;html=1;fontFamily=Times New Roman;" parent="213" vertex="1">
          <mxGeometry x="120" width="20" height="20" as="geometry">
            <mxRectangle width="20" height="20" as="alternateBounds" />
          </mxGeometry>
        </mxCell>
        <mxCell id="221" style="connectable=0;recursiveResize=0;strokeColor=inherit;fillColor=none;align=center;whiteSpace=wrap;html=1;fontFamily=Times New Roman;fontColor=#000000;" parent="213" vertex="1">
          <mxGeometry x="140" width="20" height="20" as="geometry">
            <mxRectangle width="20" height="20" as="alternateBounds" />
          </mxGeometry>
        </mxCell>
        <mxCell id="222" style="shape=tableRow;horizontal=0;startSize=0;swimlaneHead=0;swimlaneBody=0;top=0;left=0;bottom=0;right=0;dropTarget=0;collapsible=0;recursiveResize=0;expand=0;fontStyle=0;fillColor=none;strokeColor=inherit;fontFamily=Times New Roman;fontColor=#000000;" parent="193" vertex="1">
          <mxGeometry y="40" width="160" height="20" as="geometry" />
        </mxCell>
        <mxCell id="223" style="connectable=0;recursiveResize=0;strokeColor=inherit;fillColor=none;align=center;whiteSpace=wrap;html=1;fontFamily=Times New Roman;fontColor=#000000;" parent="222" vertex="1">
          <mxGeometry width="20" height="20" as="geometry">
            <mxRectangle width="20" height="20" as="alternateBounds" />
          </mxGeometry>
        </mxCell>
        <mxCell id="224" style="connectable=0;recursiveResize=0;strokeColor=inherit;fillColor=none;align=center;whiteSpace=wrap;html=1;fontFamily=Times New Roman;fontColor=#000000;" parent="222" vertex="1">
          <mxGeometry x="20" width="20" height="20" as="geometry">
            <mxRectangle width="20" height="20" as="alternateBounds" />
          </mxGeometry>
        </mxCell>
        <mxCell id="225" style="connectable=0;recursiveResize=0;strokeColor=inherit;fillColor=none;align=center;whiteSpace=wrap;html=1;fontFamily=Times New Roman;fontColor=#000000;" parent="222" vertex="1">
          <mxGeometry x="40" width="20" height="20" as="geometry">
            <mxRectangle width="20" height="20" as="alternateBounds" />
          </mxGeometry>
        </mxCell>
        <mxCell id="226" style="connectable=0;recursiveResize=0;strokeColor=inherit;fillColor=none;align=center;whiteSpace=wrap;html=1;fontFamily=Times New Roman;fontColor=#000000;" parent="222" vertex="1">
          <mxGeometry x="60" width="20" height="20" as="geometry">
            <mxRectangle width="20" height="20" as="alternateBounds" />
          </mxGeometry>
        </mxCell>
        <mxCell id="227" style="connectable=0;recursiveResize=0;strokeColor=inherit;fillColor=none;align=center;whiteSpace=wrap;html=1;fontFamily=Times New Roman;fontColor=#000000;" parent="222" vertex="1">
          <mxGeometry x="80" width="20" height="20" as="geometry">
            <mxRectangle width="20" height="20" as="alternateBounds" />
          </mxGeometry>
        </mxCell>
        <mxCell id="228" style="connectable=0;recursiveResize=0;strokeColor=inherit;fillColor=none;align=center;whiteSpace=wrap;html=1;fontFamily=Times New Roman;fontColor=#000000;" parent="222" vertex="1">
          <mxGeometry x="100" width="20" height="20" as="geometry">
            <mxRectangle width="20" height="20" as="alternateBounds" />
          </mxGeometry>
        </mxCell>
        <mxCell id="229" style="connectable=0;recursiveResize=0;strokeColor=inherit;fillColor=none;align=center;whiteSpace=wrap;html=1;fontFamily=Times New Roman;fontColor=#000000;" parent="222" vertex="1">
          <mxGeometry x="120" width="20" height="20" as="geometry">
            <mxRectangle width="20" height="20" as="alternateBounds" />
          </mxGeometry>
        </mxCell>
        <mxCell id="230" style="connectable=0;recursiveResize=0;strokeColor=inherit;fillColor=none;align=center;whiteSpace=wrap;html=1;fontFamily=Times New Roman;fontColor=#000000;" parent="222" vertex="1">
          <mxGeometry x="140" width="20" height="20" as="geometry">
            <mxRectangle width="20" height="20" as="alternateBounds" />
          </mxGeometry>
        </mxCell>
        <mxCell id="231" style="shape=tableRow;horizontal=0;startSize=0;swimlaneHead=0;swimlaneBody=0;top=0;left=0;bottom=0;right=0;dropTarget=0;collapsible=0;recursiveResize=0;expand=0;fontStyle=0;fillColor=none;strokeColor=inherit;fontFamily=Times New Roman;fontColor=#000000;" parent="193" vertex="1">
          <mxGeometry y="60" width="160" height="20" as="geometry" />
        </mxCell>
        <mxCell id="232" style="connectable=0;recursiveResize=0;strokeColor=inherit;fillColor=none;align=center;whiteSpace=wrap;html=1;fontFamily=Times New Roman;fontColor=#000000;" parent="231" vertex="1">
          <mxGeometry width="20" height="20" as="geometry">
            <mxRectangle width="20" height="20" as="alternateBounds" />
          </mxGeometry>
        </mxCell>
        <mxCell id="233" style="connectable=0;recursiveResize=0;strokeColor=inherit;fillColor=none;align=center;whiteSpace=wrap;html=1;fontFamily=Times New Roman;fontColor=#000000;" parent="231" vertex="1">
          <mxGeometry x="20" width="20" height="20" as="geometry">
            <mxRectangle width="20" height="20" as="alternateBounds" />
          </mxGeometry>
        </mxCell>
        <mxCell id="234" style="connectable=0;recursiveResize=0;strokeColor=inherit;fillColor=none;align=center;whiteSpace=wrap;html=1;fontFamily=Times New Roman;fontColor=#000000;" parent="231" vertex="1">
          <mxGeometry x="40" width="20" height="20" as="geometry">
            <mxRectangle width="20" height="20" as="alternateBounds" />
          </mxGeometry>
        </mxCell>
        <mxCell id="235" style="connectable=0;recursiveResize=0;strokeColor=inherit;fillColor=none;align=center;whiteSpace=wrap;html=1;fontFamily=Times New Roman;fontColor=#000000;" parent="231" vertex="1">
          <mxGeometry x="60" width="20" height="20" as="geometry">
            <mxRectangle width="20" height="20" as="alternateBounds" />
          </mxGeometry>
        </mxCell>
        <mxCell id="236" style="connectable=0;recursiveResize=0;strokeColor=inherit;fillColor=none;align=center;whiteSpace=wrap;html=1;fontFamily=Times New Roman;fontColor=#000000;" parent="231" vertex="1">
          <mxGeometry x="80" width="20" height="20" as="geometry">
            <mxRectangle width="20" height="20" as="alternateBounds" />
          </mxGeometry>
        </mxCell>
        <mxCell id="237" style="connectable=0;recursiveResize=0;strokeColor=inherit;fillColor=none;align=center;whiteSpace=wrap;html=1;fontFamily=Times New Roman;fontColor=#000000;" parent="231" vertex="1">
          <mxGeometry x="100" width="20" height="20" as="geometry">
            <mxRectangle width="20" height="20" as="alternateBounds" />
          </mxGeometry>
        </mxCell>
        <mxCell id="238" style="connectable=0;recursiveResize=0;strokeColor=inherit;fillColor=none;align=center;whiteSpace=wrap;html=1;fontFamily=Times New Roman;fontColor=#000000;" parent="231" vertex="1">
          <mxGeometry x="120" width="20" height="20" as="geometry">
            <mxRectangle width="20" height="20" as="alternateBounds" />
          </mxGeometry>
        </mxCell>
        <mxCell id="239" style="connectable=0;recursiveResize=0;strokeColor=inherit;fillColor=none;align=center;whiteSpace=wrap;html=1;fontFamily=Times New Roman;fontColor=#000000;" parent="231" vertex="1">
          <mxGeometry x="140" width="20" height="20" as="geometry">
            <mxRectangle width="20" height="20" as="alternateBounds" />
          </mxGeometry>
        </mxCell>
        <mxCell id="240" style="shape=tableRow;horizontal=0;startSize=0;swimlaneHead=0;swimlaneBody=0;top=0;left=0;bottom=0;right=0;dropTarget=0;collapsible=0;recursiveResize=0;expand=0;fontStyle=0;fillColor=none;strokeColor=inherit;fontFamily=Times New Roman;fontColor=#000000;" parent="193" vertex="1">
          <mxGeometry y="80" width="160" height="20" as="geometry" />
        </mxCell>
        <mxCell id="241" style="connectable=0;recursiveResize=0;strokeColor=inherit;fillColor=none;align=center;whiteSpace=wrap;html=1;fontFamily=Times New Roman;fontColor=#000000;" parent="240" vertex="1">
          <mxGeometry width="20" height="20" as="geometry">
            <mxRectangle width="20" height="20" as="alternateBounds" />
          </mxGeometry>
        </mxCell>
        <mxCell id="242" style="connectable=0;recursiveResize=0;strokeColor=inherit;fillColor=none;align=center;whiteSpace=wrap;html=1;fontFamily=Times New Roman;fontColor=#000000;" parent="240" vertex="1">
          <mxGeometry x="20" width="20" height="20" as="geometry">
            <mxRectangle width="20" height="20" as="alternateBounds" />
          </mxGeometry>
        </mxCell>
        <mxCell id="243" style="connectable=0;recursiveResize=0;strokeColor=inherit;fillColor=none;align=center;whiteSpace=wrap;html=1;fontFamily=Times New Roman;fontColor=#000000;" parent="240" vertex="1">
          <mxGeometry x="40" width="20" height="20" as="geometry">
            <mxRectangle width="20" height="20" as="alternateBounds" />
          </mxGeometry>
        </mxCell>
        <mxCell id="244" style="connectable=0;recursiveResize=0;strokeColor=inherit;fillColor=none;align=center;whiteSpace=wrap;html=1;fontFamily=Times New Roman;fontColor=#000000;" parent="240" vertex="1">
          <mxGeometry x="60" width="20" height="20" as="geometry">
            <mxRectangle width="20" height="20" as="alternateBounds" />
          </mxGeometry>
        </mxCell>
        <mxCell id="245" style="connectable=0;recursiveResize=0;strokeColor=inherit;fillColor=none;align=center;whiteSpace=wrap;html=1;fontFamily=Times New Roman;fontColor=#000000;" parent="240" vertex="1">
          <mxGeometry x="80" width="20" height="20" as="geometry">
            <mxRectangle width="20" height="20" as="alternateBounds" />
          </mxGeometry>
        </mxCell>
        <mxCell id="246" style="connectable=0;recursiveResize=0;strokeColor=inherit;fillColor=none;align=center;whiteSpace=wrap;html=1;fontFamily=Times New Roman;fontColor=#000000;" parent="240" vertex="1">
          <mxGeometry x="100" width="20" height="20" as="geometry">
            <mxRectangle width="20" height="20" as="alternateBounds" />
          </mxGeometry>
        </mxCell>
        <mxCell id="247" style="connectable=0;recursiveResize=0;strokeColor=inherit;fillColor=none;align=center;whiteSpace=wrap;html=1;fontFamily=Times New Roman;fontColor=#000000;" parent="240" vertex="1">
          <mxGeometry x="120" width="20" height="20" as="geometry">
            <mxRectangle width="20" height="20" as="alternateBounds" />
          </mxGeometry>
        </mxCell>
        <mxCell id="248" style="connectable=0;recursiveResize=0;strokeColor=inherit;fillColor=none;align=center;whiteSpace=wrap;html=1;fontFamily=Times New Roman;fontColor=#000000;" parent="240" vertex="1">
          <mxGeometry x="140" width="20" height="20" as="geometry">
            <mxRectangle width="20" height="20" as="alternateBounds" />
          </mxGeometry>
        </mxCell>
        <mxCell id="249" style="shape=tableRow;horizontal=0;startSize=0;swimlaneHead=0;swimlaneBody=0;top=0;left=0;bottom=0;right=0;dropTarget=0;collapsible=0;recursiveResize=0;expand=0;fontStyle=0;fillColor=none;strokeColor=inherit;fontFamily=Times New Roman;fontColor=#000000;" parent="193" vertex="1">
          <mxGeometry y="100" width="160" height="20" as="geometry" />
        </mxCell>
        <mxCell id="250" style="connectable=0;recursiveResize=0;strokeColor=inherit;fillColor=none;align=center;whiteSpace=wrap;html=1;fontFamily=Times New Roman;fontColor=#000000;" parent="249" vertex="1">
          <mxGeometry width="20" height="20" as="geometry">
            <mxRectangle width="20" height="20" as="alternateBounds" />
          </mxGeometry>
        </mxCell>
        <mxCell id="251" style="connectable=0;recursiveResize=0;strokeColor=inherit;fillColor=none;align=center;whiteSpace=wrap;html=1;fontFamily=Times New Roman;fontColor=#000000;" parent="249" vertex="1">
          <mxGeometry x="20" width="20" height="20" as="geometry">
            <mxRectangle width="20" height="20" as="alternateBounds" />
          </mxGeometry>
        </mxCell>
        <mxCell id="252" style="connectable=0;recursiveResize=0;strokeColor=inherit;fillColor=none;align=center;whiteSpace=wrap;html=1;fontFamily=Times New Roman;fontColor=#000000;" parent="249" vertex="1">
          <mxGeometry x="40" width="20" height="20" as="geometry">
            <mxRectangle width="20" height="20" as="alternateBounds" />
          </mxGeometry>
        </mxCell>
        <mxCell id="253" style="connectable=0;recursiveResize=0;strokeColor=inherit;fillColor=none;align=center;whiteSpace=wrap;html=1;fontFamily=Times New Roman;fontColor=#000000;" parent="249" vertex="1">
          <mxGeometry x="60" width="20" height="20" as="geometry">
            <mxRectangle width="20" height="20" as="alternateBounds" />
          </mxGeometry>
        </mxCell>
        <mxCell id="254" style="connectable=0;recursiveResize=0;strokeColor=inherit;fillColor=none;align=center;whiteSpace=wrap;html=1;fontFamily=Times New Roman;fontColor=#000000;" parent="249" vertex="1">
          <mxGeometry x="80" width="20" height="20" as="geometry">
            <mxRectangle width="20" height="20" as="alternateBounds" />
          </mxGeometry>
        </mxCell>
        <mxCell id="255" style="connectable=0;recursiveResize=0;strokeColor=inherit;fillColor=none;align=center;whiteSpace=wrap;html=1;fontFamily=Times New Roman;fontColor=#000000;" parent="249" vertex="1">
          <mxGeometry x="100" width="20" height="20" as="geometry">
            <mxRectangle width="20" height="20" as="alternateBounds" />
          </mxGeometry>
        </mxCell>
        <mxCell id="256" style="connectable=0;recursiveResize=0;strokeColor=inherit;fillColor=none;align=center;whiteSpace=wrap;html=1;fontFamily=Times New Roman;fontColor=#000000;" parent="249" vertex="1">
          <mxGeometry x="120" width="20" height="20" as="geometry">
            <mxRectangle width="20" height="20" as="alternateBounds" />
          </mxGeometry>
        </mxCell>
        <mxCell id="257" style="connectable=0;recursiveResize=0;strokeColor=inherit;fillColor=none;align=center;whiteSpace=wrap;html=1;fontFamily=Times New Roman;fontColor=#000000;" parent="249" vertex="1">
          <mxGeometry x="140" width="20" height="20" as="geometry">
            <mxRectangle width="20" height="20" as="alternateBounds" />
          </mxGeometry>
        </mxCell>
        <mxCell id="258" style="shape=tableRow;horizontal=0;startSize=0;swimlaneHead=0;swimlaneBody=0;top=0;left=0;bottom=0;right=0;dropTarget=0;collapsible=0;recursiveResize=0;expand=0;fontStyle=0;fillColor=none;strokeColor=inherit;fontFamily=Times New Roman;fontColor=#000000;" parent="193" vertex="1">
          <mxGeometry y="120" width="160" height="20" as="geometry" />
        </mxCell>
        <mxCell id="259" style="connectable=0;recursiveResize=0;strokeColor=inherit;fillColor=none;align=center;whiteSpace=wrap;html=1;fontFamily=Times New Roman;fontColor=#000000;" parent="258" vertex="1">
          <mxGeometry width="20" height="20" as="geometry">
            <mxRectangle width="20" height="20" as="alternateBounds" />
          </mxGeometry>
        </mxCell>
        <mxCell id="260" style="connectable=0;recursiveResize=0;strokeColor=inherit;fillColor=none;align=center;whiteSpace=wrap;html=1;fontFamily=Times New Roman;fontColor=#000000;" parent="258" vertex="1">
          <mxGeometry x="20" width="20" height="20" as="geometry">
            <mxRectangle width="20" height="20" as="alternateBounds" />
          </mxGeometry>
        </mxCell>
        <mxCell id="261" style="connectable=0;recursiveResize=0;strokeColor=inherit;fillColor=none;align=center;whiteSpace=wrap;html=1;fontFamily=Times New Roman;fontColor=#000000;" parent="258" vertex="1">
          <mxGeometry x="40" width="20" height="20" as="geometry">
            <mxRectangle width="20" height="20" as="alternateBounds" />
          </mxGeometry>
        </mxCell>
        <mxCell id="262" style="connectable=0;recursiveResize=0;strokeColor=inherit;fillColor=none;align=center;whiteSpace=wrap;html=1;fontFamily=Times New Roman;fontColor=#000000;" parent="258" vertex="1">
          <mxGeometry x="60" width="20" height="20" as="geometry">
            <mxRectangle width="20" height="20" as="alternateBounds" />
          </mxGeometry>
        </mxCell>
        <mxCell id="263" style="connectable=0;recursiveResize=0;strokeColor=inherit;fillColor=none;align=center;whiteSpace=wrap;html=1;fontFamily=Times New Roman;fontColor=#000000;" parent="258" vertex="1">
          <mxGeometry x="80" width="20" height="20" as="geometry">
            <mxRectangle width="20" height="20" as="alternateBounds" />
          </mxGeometry>
        </mxCell>
        <mxCell id="264" style="connectable=0;recursiveResize=0;strokeColor=inherit;fillColor=none;align=center;whiteSpace=wrap;html=1;fontFamily=Times New Roman;fontColor=#000000;" parent="258" vertex="1">
          <mxGeometry x="100" width="20" height="20" as="geometry">
            <mxRectangle width="20" height="20" as="alternateBounds" />
          </mxGeometry>
        </mxCell>
        <mxCell id="265" style="connectable=0;recursiveResize=0;strokeColor=inherit;fillColor=none;align=center;whiteSpace=wrap;html=1;fontFamily=Times New Roman;fontColor=#000000;" parent="258" vertex="1">
          <mxGeometry x="120" width="20" height="20" as="geometry">
            <mxRectangle width="20" height="20" as="alternateBounds" />
          </mxGeometry>
        </mxCell>
        <mxCell id="266" style="connectable=0;recursiveResize=0;strokeColor=inherit;fillColor=none;align=center;whiteSpace=wrap;html=1;fontFamily=Times New Roman;fontColor=#000000;" parent="258" vertex="1">
          <mxGeometry x="140" width="20" height="20" as="geometry">
            <mxRectangle width="20" height="20" as="alternateBounds" />
          </mxGeometry>
        </mxCell>
        <mxCell id="267" style="shape=tableRow;horizontal=0;startSize=0;swimlaneHead=0;swimlaneBody=0;top=0;left=0;bottom=0;right=0;dropTarget=0;collapsible=0;recursiveResize=0;expand=0;fontStyle=0;fillColor=none;strokeColor=inherit;fontFamily=Times New Roman;fontColor=#000000;" parent="193" vertex="1">
          <mxGeometry y="140" width="160" height="20" as="geometry" />
        </mxCell>
        <mxCell id="268" style="connectable=0;recursiveResize=0;strokeColor=inherit;fillColor=none;align=center;whiteSpace=wrap;html=1;fontFamily=Times New Roman;fontColor=#000000;" parent="267" vertex="1">
          <mxGeometry width="20" height="20" as="geometry">
            <mxRectangle width="20" height="20" as="alternateBounds" />
          </mxGeometry>
        </mxCell>
        <mxCell id="269" style="connectable=0;recursiveResize=0;strokeColor=inherit;fillColor=none;align=center;whiteSpace=wrap;html=1;fontFamily=Times New Roman;fontColor=#000000;" parent="267" vertex="1">
          <mxGeometry x="20" width="20" height="20" as="geometry">
            <mxRectangle width="20" height="20" as="alternateBounds" />
          </mxGeometry>
        </mxCell>
        <mxCell id="270" style="connectable=0;recursiveResize=0;strokeColor=inherit;fillColor=none;align=center;whiteSpace=wrap;html=1;fontFamily=Times New Roman;fontColor=#000000;" parent="267" vertex="1">
          <mxGeometry x="40" width="20" height="20" as="geometry">
            <mxRectangle width="20" height="20" as="alternateBounds" />
          </mxGeometry>
        </mxCell>
        <mxCell id="271" value="62" style="connectable=0;recursiveResize=0;strokeColor=inherit;fillColor=#FFCCCC;align=center;whiteSpace=wrap;html=1;fontFamily=Times New Roman;fontColor=#000000;" parent="267" vertex="1">
          <mxGeometry x="60" width="20" height="20" as="geometry">
            <mxRectangle width="20" height="20" as="alternateBounds" />
          </mxGeometry>
        </mxCell>
        <mxCell id="272" style="connectable=0;recursiveResize=0;strokeColor=inherit;fillColor=none;align=center;whiteSpace=wrap;html=1;fontFamily=Times New Roman;fontColor=#000000;" parent="267" vertex="1">
          <mxGeometry x="80" width="20" height="20" as="geometry">
            <mxRectangle width="20" height="20" as="alternateBounds" />
          </mxGeometry>
        </mxCell>
        <mxCell id="273" style="connectable=0;recursiveResize=0;strokeColor=inherit;fillColor=none;align=center;whiteSpace=wrap;html=1;fontFamily=Times New Roman;fontColor=#000000;" parent="267" vertex="1">
          <mxGeometry x="100" width="20" height="20" as="geometry">
            <mxRectangle width="20" height="20" as="alternateBounds" />
          </mxGeometry>
        </mxCell>
        <mxCell id="274" style="connectable=0;recursiveResize=0;strokeColor=inherit;fillColor=none;align=center;whiteSpace=wrap;html=1;fontFamily=Times New Roman;fontColor=#000000;" parent="267" vertex="1">
          <mxGeometry x="120" width="20" height="20" as="geometry">
            <mxRectangle width="20" height="20" as="alternateBounds" />
          </mxGeometry>
        </mxCell>
        <mxCell id="275" value="12" style="connectable=0;recursiveResize=0;strokeColor=inherit;fillColor=#FFCCCC;align=center;whiteSpace=wrap;html=1;fontFamily=Times New Roman;fontColor=#000000;" parent="267" vertex="1">
          <mxGeometry x="140" width="20" height="20" as="geometry">
            <mxRectangle width="20" height="20" as="alternateBounds" />
          </mxGeometry>
        </mxCell>
        <mxCell id="410" value="" style="childLayout=tableLayout;recursiveResize=0;shadow=0;fillColor=none;strokeColor=none;fontFamily=Times New Roman;fontColor=#000000;" parent="1" vertex="1">
          <mxGeometry x="470.12000000000006" y="1070" width="160" height="20" as="geometry" />
        </mxCell>
        <mxCell id="411" value="" style="shape=tableRow;horizontal=0;startSize=0;swimlaneHead=0;swimlaneBody=0;top=0;left=0;bottom=0;right=0;dropTarget=0;collapsible=0;recursiveResize=0;expand=0;fontStyle=0;fillColor=none;strokeColor=inherit;fontFamily=Times New Roman;fontColor=#000000;" parent="410" vertex="1">
          <mxGeometry width="160" height="20" as="geometry" />
        </mxCell>
        <mxCell id="577" value="0" style="connectable=0;recursiveResize=0;strokeColor=inherit;fillColor=none;align=center;whiteSpace=wrap;html=1;fontFamily=Times New Roman;fontColor=#000000;" parent="411" vertex="1">
          <mxGeometry width="20" height="20" as="geometry">
            <mxRectangle width="20" height="20" as="alternateBounds" />
          </mxGeometry>
        </mxCell>
        <mxCell id="412" value="1" style="connectable=0;recursiveResize=0;strokeColor=inherit;fillColor=none;align=center;whiteSpace=wrap;html=1;fontFamily=Times New Roman;fontColor=#000000;" parent="411" vertex="1">
          <mxGeometry x="20" width="20" height="20" as="geometry">
            <mxRectangle width="20" height="20" as="alternateBounds" />
          </mxGeometry>
        </mxCell>
        <mxCell id="413" value="2" style="connectable=0;recursiveResize=0;strokeColor=inherit;fillColor=none;align=center;whiteSpace=wrap;html=1;fontFamily=Times New Roman;fontColor=#000000;" parent="411" vertex="1">
          <mxGeometry x="40" width="20" height="20" as="geometry">
            <mxRectangle width="20" height="20" as="alternateBounds" />
          </mxGeometry>
        </mxCell>
        <mxCell id="414" value="3" style="connectable=0;recursiveResize=0;strokeColor=inherit;fillColor=none;align=center;whiteSpace=wrap;html=1;fontFamily=Times New Roman;fontColor=#000000;" parent="411" vertex="1">
          <mxGeometry x="60" width="20" height="20" as="geometry">
            <mxRectangle width="20" height="20" as="alternateBounds" />
          </mxGeometry>
        </mxCell>
        <mxCell id="415" value="4" style="connectable=0;recursiveResize=0;strokeColor=inherit;fillColor=none;align=center;whiteSpace=wrap;html=1;fontFamily=Times New Roman;fontColor=#000000;" parent="411" vertex="1">
          <mxGeometry x="80" width="20" height="20" as="geometry">
            <mxRectangle width="20" height="20" as="alternateBounds" />
          </mxGeometry>
        </mxCell>
        <mxCell id="416" value="5" style="connectable=0;recursiveResize=0;strokeColor=inherit;fillColor=none;align=center;whiteSpace=wrap;html=1;fontFamily=Times New Roman;fontColor=#000000;" parent="411" vertex="1">
          <mxGeometry x="100" width="20" height="20" as="geometry">
            <mxRectangle width="20" height="20" as="alternateBounds" />
          </mxGeometry>
        </mxCell>
        <mxCell id="417" value="6" style="connectable=0;recursiveResize=0;strokeColor=inherit;fillColor=none;align=center;whiteSpace=wrap;html=1;fontFamily=Times New Roman;fontColor=#000000;" parent="411" vertex="1">
          <mxGeometry x="120" width="20" height="20" as="geometry">
            <mxRectangle width="20" height="20" as="alternateBounds" />
          </mxGeometry>
        </mxCell>
        <mxCell id="418" value="7" style="connectable=0;recursiveResize=0;strokeColor=inherit;fillColor=none;align=center;whiteSpace=wrap;html=1;fontFamily=Times New Roman;fontColor=#000000;" parent="411" vertex="1">
          <mxGeometry x="140" width="20" height="20" as="geometry">
            <mxRectangle width="20" height="20" as="alternateBounds" />
          </mxGeometry>
        </mxCell>
        <mxCell id="501" value="" style="childLayout=tableLayout;recursiveResize=0;shadow=0;fillColor=none;strokeColor=none;fontFamily=Times New Roman;fontColor=#000000;" parent="1" vertex="1">
          <mxGeometry x="450.11" y="1091" width="20" height="160" as="geometry" />
        </mxCell>
        <mxCell id="574" style="shape=tableRow;horizontal=0;startSize=0;swimlaneHead=0;swimlaneBody=0;top=0;left=0;bottom=0;right=0;dropTarget=0;collapsible=0;recursiveResize=0;expand=0;fontStyle=0;fillColor=none;strokeColor=inherit;fontFamily=Times New Roman;fontColor=#000000;" parent="501" vertex="1">
          <mxGeometry width="20" height="20" as="geometry" />
        </mxCell>
        <mxCell id="575" value="0" style="connectable=0;recursiveResize=0;strokeColor=inherit;fillColor=none;align=center;whiteSpace=wrap;html=1;fontFamily=Times New Roman;fontColor=#000000;" parent="574" vertex="1">
          <mxGeometry width="20" height="20" as="geometry">
            <mxRectangle width="20" height="20" as="alternateBounds" />
          </mxGeometry>
        </mxCell>
        <mxCell id="502" value="" style="shape=tableRow;horizontal=0;startSize=0;swimlaneHead=0;swimlaneBody=0;top=0;left=0;bottom=0;right=0;dropTarget=0;collapsible=0;recursiveResize=0;expand=0;fontStyle=0;fillColor=none;strokeColor=inherit;fontFamily=Times New Roman;fontColor=#000000;" parent="501" vertex="1">
          <mxGeometry y="20" width="20" height="20" as="geometry" />
        </mxCell>
        <mxCell id="503" value="1" style="connectable=0;recursiveResize=0;strokeColor=inherit;fillColor=none;align=center;whiteSpace=wrap;html=1;fontFamily=Times New Roman;fontColor=#000000;" parent="502" vertex="1">
          <mxGeometry width="20" height="20" as="geometry">
            <mxRectangle width="20" height="20" as="alternateBounds" />
          </mxGeometry>
        </mxCell>
        <mxCell id="511" style="shape=tableRow;horizontal=0;startSize=0;swimlaneHead=0;swimlaneBody=0;top=0;left=0;bottom=0;right=0;dropTarget=0;collapsible=0;recursiveResize=0;expand=0;fontStyle=0;fillColor=none;strokeColor=inherit;fontFamily=Times New Roman;fontColor=#000000;" parent="501" vertex="1">
          <mxGeometry y="40" width="20" height="20" as="geometry" />
        </mxCell>
        <mxCell id="512" value="2" style="connectable=0;recursiveResize=0;strokeColor=inherit;fillColor=none;align=center;whiteSpace=wrap;html=1;fontFamily=Times New Roman;fontColor=#000000;" parent="511" vertex="1">
          <mxGeometry width="20" height="20" as="geometry">
            <mxRectangle width="20" height="20" as="alternateBounds" />
          </mxGeometry>
        </mxCell>
        <mxCell id="520" style="shape=tableRow;horizontal=0;startSize=0;swimlaneHead=0;swimlaneBody=0;top=0;left=0;bottom=0;right=0;dropTarget=0;collapsible=0;recursiveResize=0;expand=0;fontStyle=0;fillColor=none;strokeColor=inherit;fontFamily=Times New Roman;fontColor=#000000;" parent="501" vertex="1">
          <mxGeometry y="60" width="20" height="20" as="geometry" />
        </mxCell>
        <mxCell id="521" value="3" style="connectable=0;recursiveResize=0;strokeColor=inherit;fillColor=none;align=center;whiteSpace=wrap;html=1;fontFamily=Times New Roman;fontColor=#000000;" parent="520" vertex="1">
          <mxGeometry width="20" height="20" as="geometry">
            <mxRectangle width="20" height="20" as="alternateBounds" />
          </mxGeometry>
        </mxCell>
        <mxCell id="529" style="shape=tableRow;horizontal=0;startSize=0;swimlaneHead=0;swimlaneBody=0;top=0;left=0;bottom=0;right=0;dropTarget=0;collapsible=0;recursiveResize=0;expand=0;fontStyle=0;fillColor=none;strokeColor=inherit;fontFamily=Times New Roman;fontColor=#000000;" parent="501" vertex="1">
          <mxGeometry y="80" width="20" height="20" as="geometry" />
        </mxCell>
        <mxCell id="530" value="4" style="connectable=0;recursiveResize=0;strokeColor=inherit;fillColor=none;align=center;whiteSpace=wrap;html=1;fontFamily=Times New Roman;fontColor=#000000;" parent="529" vertex="1">
          <mxGeometry width="20" height="20" as="geometry">
            <mxRectangle width="20" height="20" as="alternateBounds" />
          </mxGeometry>
        </mxCell>
        <mxCell id="538" style="shape=tableRow;horizontal=0;startSize=0;swimlaneHead=0;swimlaneBody=0;top=0;left=0;bottom=0;right=0;dropTarget=0;collapsible=0;recursiveResize=0;expand=0;fontStyle=0;fillColor=none;strokeColor=inherit;fontFamily=Times New Roman;fontColor=#000000;" parent="501" vertex="1">
          <mxGeometry y="100" width="20" height="20" as="geometry" />
        </mxCell>
        <mxCell id="539" value="5" style="connectable=0;recursiveResize=0;strokeColor=inherit;fillColor=none;align=center;whiteSpace=wrap;html=1;fontFamily=Times New Roman;fontColor=#000000;" parent="538" vertex="1">
          <mxGeometry width="20" height="20" as="geometry">
            <mxRectangle width="20" height="20" as="alternateBounds" />
          </mxGeometry>
        </mxCell>
        <mxCell id="547" style="shape=tableRow;horizontal=0;startSize=0;swimlaneHead=0;swimlaneBody=0;top=0;left=0;bottom=0;right=0;dropTarget=0;collapsible=0;recursiveResize=0;expand=0;fontStyle=0;fillColor=none;strokeColor=inherit;fontFamily=Times New Roman;fontColor=#000000;" parent="501" vertex="1">
          <mxGeometry y="120" width="20" height="20" as="geometry" />
        </mxCell>
        <mxCell id="548" value="6" style="connectable=0;recursiveResize=0;strokeColor=inherit;fillColor=none;align=center;whiteSpace=wrap;html=1;fontFamily=Times New Roman;fontColor=#000000;" parent="547" vertex="1">
          <mxGeometry width="20" height="20" as="geometry">
            <mxRectangle width="20" height="20" as="alternateBounds" />
          </mxGeometry>
        </mxCell>
        <mxCell id="556" style="shape=tableRow;horizontal=0;startSize=0;swimlaneHead=0;swimlaneBody=0;top=0;left=0;bottom=0;right=0;dropTarget=0;collapsible=0;recursiveResize=0;expand=0;fontStyle=0;fillColor=none;strokeColor=inherit;fontFamily=Times New Roman;fontColor=#000000;" parent="501" vertex="1">
          <mxGeometry y="140" width="20" height="20" as="geometry" />
        </mxCell>
        <mxCell id="557" value="7" style="connectable=0;recursiveResize=0;strokeColor=inherit;fillColor=none;align=center;whiteSpace=wrap;html=1;fontFamily=Times New Roman;fontColor=#000000;" parent="556" vertex="1">
          <mxGeometry width="20" height="20" as="geometry">
            <mxRectangle width="20" height="20" as="alternateBounds" />
          </mxGeometry>
        </mxCell>
        <mxCell id="607" value="&lt;font style=&quot;&quot; data-font-src=&quot;https://fonts.googleapis.com/css?family=Linux+Libertine&quot; face=&quot;Linux Libertine&quot;&gt;Merge to CSR adder&lt;/font&gt;" style="text;html=1;strokeColor=none;fillColor=none;align=center;verticalAlign=middle;whiteSpace=wrap;rounded=0;fontColor=#000000;fontFamily=Times New Roman;" parent="1" vertex="1">
          <mxGeometry x="790.32" y="1272.78" width="131" height="30" as="geometry" />
        </mxCell>
        <mxCell id="C4AZiwXbv_r8diAMs2qV-647" value="" style="shape=flexArrow;endArrow=classic;html=1;rounded=0;endWidth=9.166666666666666;endSize=3.7007999999999996;width=6.24;" parent="1" edge="1">
          <mxGeometry width="50" height="50" relative="1" as="geometry">
            <mxPoint x="747" y="1159.28" as="sourcePoint" />
            <mxPoint x="777" y="1159" as="targetPoint" />
          </mxGeometry>
        </mxCell>
        <mxCell id="C4AZiwXbv_r8diAMs2qV-719" value="" style="shape=table;html=1;whiteSpace=wrap;startSize=0;container=1;collapsible=0;childLayout=tableLayout;direction=east;fontFamily=Times New Roman;" parent="1" vertex="1">
          <mxGeometry x="781" y="1060" width="101" height="200" as="geometry" />
        </mxCell>
        <mxCell id="C4AZiwXbv_r8diAMs2qV-749" style="shape=tableRow;horizontal=0;startSize=0;swimlaneHead=0;swimlaneBody=0;top=0;left=0;bottom=0;right=0;collapsible=0;dropTarget=0;fillColor=none;points=[[0,0.5],[1,0.5]];portConstraint=eastwest;" parent="C4AZiwXbv_r8diAMs2qV-719" vertex="1">
          <mxGeometry width="101" height="20" as="geometry" />
        </mxCell>
        <mxCell id="C4AZiwXbv_r8diAMs2qV-750" value="&lt;font data-font-src=&quot;https://fonts.googleapis.com/css?family=Linux+Libertine&quot; face=&quot;Linux Libertine&quot;&gt;Intra-haz table&lt;/font&gt;" style="shape=partialRectangle;html=1;whiteSpace=wrap;connectable=0;fillColor=none;top=0;left=0;bottom=0;right=0;overflow=hidden;rowspan=1;colspan=3;" parent="C4AZiwXbv_r8diAMs2qV-749" vertex="1">
          <mxGeometry width="101" height="20" as="geometry">
            <mxRectangle width="34" height="20" as="alternateBounds" />
          </mxGeometry>
        </mxCell>
        <mxCell id="C4AZiwXbv_r8diAMs2qV-751" style="shape=partialRectangle;html=1;whiteSpace=wrap;connectable=0;fillColor=none;top=0;left=0;bottom=0;right=0;overflow=hidden;" parent="C4AZiwXbv_r8diAMs2qV-749" vertex="1" visible="0">
          <mxGeometry x="34" width="33" height="20" as="geometry">
            <mxRectangle width="33" height="20" as="alternateBounds" />
          </mxGeometry>
        </mxCell>
        <mxCell id="1119" style="shape=partialRectangle;html=1;whiteSpace=wrap;connectable=0;fillColor=none;top=0;left=0;bottom=0;right=0;overflow=hidden;" parent="C4AZiwXbv_r8diAMs2qV-749" vertex="1" visible="0">
          <mxGeometry x="67" width="34" height="20" as="geometry">
            <mxRectangle width="34" height="20" as="alternateBounds" />
          </mxGeometry>
        </mxCell>
        <mxCell id="C4AZiwXbv_r8diAMs2qV-720" style="shape=tableRow;horizontal=0;startSize=0;swimlaneHead=0;swimlaneBody=0;top=0;left=0;bottom=0;right=0;collapsible=0;dropTarget=0;fillColor=none;points=[[0,0.5],[1,0.5]];portConstraint=eastwest;" parent="C4AZiwXbv_r8diAMs2qV-719" vertex="1">
          <mxGeometry y="20" width="101" height="20" as="geometry" />
        </mxCell>
        <mxCell id="C4AZiwXbv_r8diAMs2qV-721" value="&lt;font data-font-src=&quot;https://fonts.googleapis.com/css?family=Linux+Libertine&quot; face=&quot;Linux Libertine&quot;&gt;src&lt;/font&gt;" style="shape=partialRectangle;html=1;whiteSpace=wrap;connectable=0;fillColor=none;top=0;left=0;bottom=0;right=0;overflow=hidden;" parent="C4AZiwXbv_r8diAMs2qV-720" vertex="1">
          <mxGeometry width="34" height="20" as="geometry">
            <mxRectangle width="34" height="20" as="alternateBounds" />
          </mxGeometry>
        </mxCell>
        <mxCell id="C4AZiwXbv_r8diAMs2qV-722" value="&lt;font data-font-src=&quot;https://fonts.googleapis.com/css?family=Linux+Libertine&quot; face=&quot;Linux Libertine&quot;&gt;value&lt;/font&gt;" style="shape=partialRectangle;html=1;whiteSpace=wrap;connectable=0;fillColor=none;top=0;left=0;bottom=0;right=0;overflow=hidden;" parent="C4AZiwXbv_r8diAMs2qV-720" vertex="1">
          <mxGeometry x="34" width="33" height="20" as="geometry">
            <mxRectangle width="33" height="20" as="alternateBounds" />
          </mxGeometry>
        </mxCell>
        <mxCell id="1120" value="&lt;font data-font-src=&quot;https://fonts.googleapis.com/css?family=Linux+Libertine&quot; face=&quot;Linux Libertine&quot;&gt;adder&lt;/font&gt;" style="shape=partialRectangle;html=1;whiteSpace=wrap;connectable=0;fillColor=none;top=0;left=0;bottom=0;right=0;overflow=hidden;" parent="C4AZiwXbv_r8diAMs2qV-720" vertex="1">
          <mxGeometry x="67" width="34" height="20" as="geometry">
            <mxRectangle width="34" height="20" as="alternateBounds" />
          </mxGeometry>
        </mxCell>
        <mxCell id="C4AZiwXbv_r8diAMs2qV-723" style="shape=tableRow;horizontal=0;startSize=0;swimlaneHead=0;swimlaneBody=0;top=0;left=0;bottom=0;right=0;collapsible=0;dropTarget=0;fillColor=none;points=[[0,0.5],[1,0.5]];portConstraint=eastwest;" parent="C4AZiwXbv_r8diAMs2qV-719" vertex="1">
          <mxGeometry y="40" width="101" height="20" as="geometry" />
        </mxCell>
        <mxCell id="C4AZiwXbv_r8diAMs2qV-724" value="" style="shape=partialRectangle;html=1;whiteSpace=wrap;connectable=0;fillColor=none;top=0;left=0;bottom=0;right=0;overflow=hidden;gradientColor=#ffd966;strokeColor=#d6b656;" parent="C4AZiwXbv_r8diAMs2qV-723" vertex="1">
          <mxGeometry width="34" height="20" as="geometry">
            <mxRectangle width="34" height="20" as="alternateBounds" />
          </mxGeometry>
        </mxCell>
        <mxCell id="C4AZiwXbv_r8diAMs2qV-725" value="" style="shape=partialRectangle;html=1;whiteSpace=wrap;connectable=0;fillColor=none;top=0;left=0;bottom=0;right=0;overflow=hidden;gradientColor=#ffd966;strokeColor=#d6b656;" parent="C4AZiwXbv_r8diAMs2qV-723" vertex="1">
          <mxGeometry x="34" width="33" height="20" as="geometry">
            <mxRectangle width="33" height="20" as="alternateBounds" />
          </mxGeometry>
        </mxCell>
        <mxCell id="1121" style="shape=partialRectangle;html=1;whiteSpace=wrap;connectable=0;fillColor=none;top=0;left=0;bottom=0;right=0;overflow=hidden;gradientColor=#ffd966;strokeColor=#d6b656;" parent="C4AZiwXbv_r8diAMs2qV-723" vertex="1">
          <mxGeometry x="67" width="34" height="20" as="geometry">
            <mxRectangle width="34" height="20" as="alternateBounds" />
          </mxGeometry>
        </mxCell>
        <mxCell id="C4AZiwXbv_r8diAMs2qV-726" style="shape=tableRow;horizontal=0;startSize=0;swimlaneHead=0;swimlaneBody=0;top=0;left=0;bottom=0;right=0;collapsible=0;dropTarget=0;fillColor=none;points=[[0,0.5],[1,0.5]];portConstraint=eastwest;" parent="C4AZiwXbv_r8diAMs2qV-719" vertex="1">
          <mxGeometry y="60" width="101" height="20" as="geometry" />
        </mxCell>
        <mxCell id="C4AZiwXbv_r8diAMs2qV-727" value="" style="shape=partialRectangle;html=1;whiteSpace=wrap;connectable=0;fillColor=none;top=0;left=0;bottom=0;right=0;overflow=hidden;" parent="C4AZiwXbv_r8diAMs2qV-726" vertex="1">
          <mxGeometry width="34" height="20" as="geometry">
            <mxRectangle width="34" height="20" as="alternateBounds" />
          </mxGeometry>
        </mxCell>
        <mxCell id="C4AZiwXbv_r8diAMs2qV-728" value="" style="shape=partialRectangle;html=1;whiteSpace=wrap;connectable=0;fillColor=none;top=0;left=0;bottom=0;right=0;overflow=hidden;" parent="C4AZiwXbv_r8diAMs2qV-726" vertex="1">
          <mxGeometry x="34" width="33" height="20" as="geometry">
            <mxRectangle width="33" height="20" as="alternateBounds" />
          </mxGeometry>
        </mxCell>
        <mxCell id="1122" style="shape=partialRectangle;html=1;whiteSpace=wrap;connectable=0;fillColor=none;top=0;left=0;bottom=0;right=0;overflow=hidden;" parent="C4AZiwXbv_r8diAMs2qV-726" vertex="1">
          <mxGeometry x="67" width="34" height="20" as="geometry">
            <mxRectangle width="34" height="20" as="alternateBounds" />
          </mxGeometry>
        </mxCell>
        <mxCell id="C4AZiwXbv_r8diAMs2qV-730" style="shape=tableRow;horizontal=0;startSize=0;swimlaneHead=0;swimlaneBody=0;top=0;left=0;bottom=0;right=0;collapsible=0;dropTarget=0;fillColor=#cce5ff;points=[[0,0.5],[1,0.5]];portConstraint=eastwest;strokeColor=#36393d;" parent="C4AZiwXbv_r8diAMs2qV-719" vertex="1">
          <mxGeometry y="80" width="101" height="20" as="geometry" />
        </mxCell>
        <mxCell id="C4AZiwXbv_r8diAMs2qV-731" value="1" style="shape=partialRectangle;html=1;whiteSpace=wrap;connectable=0;fillColor=#cce5ff;top=0;left=0;bottom=0;right=0;overflow=hidden;fontFamily=Times New Roman;strokeColor=#36393d;" parent="C4AZiwXbv_r8diAMs2qV-730" vertex="1">
          <mxGeometry width="34" height="20" as="geometry">
            <mxRectangle width="34" height="20" as="alternateBounds" />
          </mxGeometry>
        </mxCell>
        <mxCell id="C4AZiwXbv_r8diAMs2qV-732" value="&lt;font face=&quot;Times New Roman&quot;&gt;3, 1&lt;/font&gt;" style="shape=partialRectangle;html=1;whiteSpace=wrap;connectable=0;fillColor=none;top=0;left=0;bottom=0;right=0;overflow=hidden;" parent="C4AZiwXbv_r8diAMs2qV-730" vertex="1">
          <mxGeometry x="34" width="33" height="20" as="geometry">
            <mxRectangle width="33" height="20" as="alternateBounds" />
          </mxGeometry>
        </mxCell>
        <mxCell id="1123" value="&lt;font face=&quot;Times New Roman&quot;&gt;1&lt;/font&gt;" style="shape=partialRectangle;html=1;whiteSpace=wrap;connectable=0;fillColor=none;top=0;left=0;bottom=0;right=0;overflow=hidden;" parent="C4AZiwXbv_r8diAMs2qV-730" vertex="1">
          <mxGeometry x="67" width="34" height="20" as="geometry">
            <mxRectangle width="34" height="20" as="alternateBounds" />
          </mxGeometry>
        </mxCell>
        <mxCell id="C4AZiwXbv_r8diAMs2qV-733" style="shape=tableRow;horizontal=0;startSize=0;swimlaneHead=0;swimlaneBody=0;top=0;left=0;bottom=0;right=0;collapsible=0;dropTarget=0;fillColor=none;points=[[0,0.5],[1,0.5]];portConstraint=eastwest;" parent="C4AZiwXbv_r8diAMs2qV-719" vertex="1">
          <mxGeometry y="100" width="101" height="20" as="geometry" />
        </mxCell>
        <mxCell id="C4AZiwXbv_r8diAMs2qV-734" value="" style="shape=partialRectangle;html=1;whiteSpace=wrap;connectable=0;fillColor=none;top=0;left=0;bottom=0;right=0;overflow=hidden;" parent="C4AZiwXbv_r8diAMs2qV-733" vertex="1">
          <mxGeometry width="34" height="20" as="geometry">
            <mxRectangle width="34" height="20" as="alternateBounds" />
          </mxGeometry>
        </mxCell>
        <mxCell id="C4AZiwXbv_r8diAMs2qV-735" value="" style="shape=partialRectangle;html=1;whiteSpace=wrap;connectable=0;fillColor=none;top=0;left=0;bottom=0;right=0;overflow=hidden;" parent="C4AZiwXbv_r8diAMs2qV-733" vertex="1">
          <mxGeometry x="34" width="33" height="20" as="geometry">
            <mxRectangle width="33" height="20" as="alternateBounds" />
          </mxGeometry>
        </mxCell>
        <mxCell id="1124" style="shape=partialRectangle;html=1;whiteSpace=wrap;connectable=0;fillColor=none;top=0;left=0;bottom=0;right=0;overflow=hidden;" parent="C4AZiwXbv_r8diAMs2qV-733" vertex="1">
          <mxGeometry x="67" width="34" height="20" as="geometry">
            <mxRectangle width="34" height="20" as="alternateBounds" />
          </mxGeometry>
        </mxCell>
        <mxCell id="C4AZiwXbv_r8diAMs2qV-736" style="shape=tableRow;horizontal=0;startSize=0;swimlaneHead=0;swimlaneBody=0;top=0;left=0;bottom=0;right=0;collapsible=0;dropTarget=0;fillColor=none;points=[[0,0.5],[1,0.5]];portConstraint=eastwest;" parent="C4AZiwXbv_r8diAMs2qV-719" vertex="1">
          <mxGeometry y="120" width="101" height="20" as="geometry" />
        </mxCell>
        <mxCell id="C4AZiwXbv_r8diAMs2qV-737" value="&lt;font data-font-src=&quot;https://fonts.googleapis.com/css?family=Linux+Libertine&quot; face=&quot;Linux Libertine&quot;&gt;7&lt;/font&gt;" style="shape=partialRectangle;html=1;whiteSpace=wrap;connectable=0;fillColor=#FFCCCC;top=0;left=0;bottom=0;right=0;overflow=hidden;strokeColor=#36393d;" parent="C4AZiwXbv_r8diAMs2qV-736" vertex="1">
          <mxGeometry width="34" height="20" as="geometry">
            <mxRectangle width="34" height="20" as="alternateBounds" />
          </mxGeometry>
        </mxCell>
        <mxCell id="C4AZiwXbv_r8diAMs2qV-738" value="&lt;font data-font-src=&quot;https://fonts.googleapis.com/css?family=Linux+Libertine&quot; face=&quot;Linux Libertine&quot;&gt;62,12&lt;/font&gt;" style="shape=partialRectangle;html=1;whiteSpace=wrap;connectable=0;fillColor=#FFCCCC;top=0;left=0;bottom=0;right=0;overflow=hidden;strokeColor=#36393d;" parent="C4AZiwXbv_r8diAMs2qV-736" vertex="1">
          <mxGeometry x="34" width="33" height="20" as="geometry">
            <mxRectangle width="33" height="20" as="alternateBounds" />
          </mxGeometry>
        </mxCell>
        <mxCell id="1125" value="&lt;font data-font-src=&quot;https://fonts.googleapis.com/css?family=Linux+Libertine&quot; face=&quot;Linux Libertine&quot;&gt;2&lt;/font&gt;" style="shape=partialRectangle;html=1;whiteSpace=wrap;connectable=0;fillColor=#FFCCCC;top=0;left=0;bottom=0;right=0;overflow=hidden;strokeColor=#36393d;" parent="C4AZiwXbv_r8diAMs2qV-736" vertex="1">
          <mxGeometry x="67" width="34" height="20" as="geometry">
            <mxRectangle width="34" height="20" as="alternateBounds" />
          </mxGeometry>
        </mxCell>
        <mxCell id="C4AZiwXbv_r8diAMs2qV-739" style="shape=tableRow;horizontal=0;startSize=0;swimlaneHead=0;swimlaneBody=0;top=0;left=0;bottom=0;right=0;collapsible=0;dropTarget=0;fillColor=none;points=[[0,0.5],[1,0.5]];portConstraint=eastwest;" parent="C4AZiwXbv_r8diAMs2qV-719" vertex="1">
          <mxGeometry y="140" width="101" height="20" as="geometry" />
        </mxCell>
        <mxCell id="C4AZiwXbv_r8diAMs2qV-740" value="" style="shape=partialRectangle;html=1;whiteSpace=wrap;connectable=0;fillColor=none;top=0;left=0;bottom=0;right=0;overflow=hidden;" parent="C4AZiwXbv_r8diAMs2qV-739" vertex="1">
          <mxGeometry width="34" height="20" as="geometry">
            <mxRectangle width="34" height="20" as="alternateBounds" />
          </mxGeometry>
        </mxCell>
        <mxCell id="C4AZiwXbv_r8diAMs2qV-741" value="" style="shape=partialRectangle;html=1;whiteSpace=wrap;connectable=0;fillColor=none;top=0;left=0;bottom=0;right=0;overflow=hidden;" parent="C4AZiwXbv_r8diAMs2qV-739" vertex="1">
          <mxGeometry x="34" width="33" height="20" as="geometry">
            <mxRectangle width="33" height="20" as="alternateBounds" />
          </mxGeometry>
        </mxCell>
        <mxCell id="1126" style="shape=partialRectangle;html=1;whiteSpace=wrap;connectable=0;fillColor=none;top=0;left=0;bottom=0;right=0;overflow=hidden;" parent="C4AZiwXbv_r8diAMs2qV-739" vertex="1">
          <mxGeometry x="67" width="34" height="20" as="geometry">
            <mxRectangle width="34" height="20" as="alternateBounds" />
          </mxGeometry>
        </mxCell>
        <mxCell id="C4AZiwXbv_r8diAMs2qV-742" style="shape=tableRow;horizontal=0;startSize=0;swimlaneHead=0;swimlaneBody=0;top=0;left=0;bottom=0;right=0;collapsible=0;dropTarget=0;fillColor=none;points=[[0,0.5],[1,0.5]];portConstraint=eastwest;" parent="C4AZiwXbv_r8diAMs2qV-719" vertex="1">
          <mxGeometry y="160" width="101" height="20" as="geometry" />
        </mxCell>
        <mxCell id="C4AZiwXbv_r8diAMs2qV-743" value="" style="shape=partialRectangle;html=1;whiteSpace=wrap;connectable=0;fillColor=none;top=0;left=0;bottom=0;right=0;overflow=hidden;fontFamily=Times New Roman;strokeColor=#36393d;" parent="C4AZiwXbv_r8diAMs2qV-742" vertex="1">
          <mxGeometry width="34" height="20" as="geometry">
            <mxRectangle width="34" height="20" as="alternateBounds" />
          </mxGeometry>
        </mxCell>
        <mxCell id="C4AZiwXbv_r8diAMs2qV-744" value="" style="shape=partialRectangle;html=1;whiteSpace=wrap;connectable=0;fillColor=none;top=0;left=0;bottom=0;right=0;overflow=hidden;strokeColor=#36393d;" parent="C4AZiwXbv_r8diAMs2qV-742" vertex="1">
          <mxGeometry x="34" width="33" height="20" as="geometry">
            <mxRectangle width="33" height="20" as="alternateBounds" />
          </mxGeometry>
        </mxCell>
        <mxCell id="1127" style="shape=partialRectangle;html=1;whiteSpace=wrap;connectable=0;fillColor=none;top=0;left=0;bottom=0;right=0;overflow=hidden;strokeColor=#36393d;" parent="C4AZiwXbv_r8diAMs2qV-742" vertex="1">
          <mxGeometry x="67" width="34" height="20" as="geometry">
            <mxRectangle width="34" height="20" as="alternateBounds" />
          </mxGeometry>
        </mxCell>
        <mxCell id="C4AZiwXbv_r8diAMs2qV-745" style="shape=tableRow;horizontal=0;startSize=0;swimlaneHead=0;swimlaneBody=0;top=0;left=0;bottom=0;right=0;collapsible=0;dropTarget=0;fillColor=none;points=[[0,0.5],[1,0.5]];portConstraint=eastwest;" parent="C4AZiwXbv_r8diAMs2qV-719" vertex="1">
          <mxGeometry y="180" width="101" height="20" as="geometry" />
        </mxCell>
        <mxCell id="C4AZiwXbv_r8diAMs2qV-746" value="" style="shape=partialRectangle;html=1;whiteSpace=wrap;connectable=0;fillColor=none;top=0;left=0;bottom=0;right=0;overflow=hidden;strokeColor=#36393d;" parent="C4AZiwXbv_r8diAMs2qV-745" vertex="1">
          <mxGeometry width="34" height="20" as="geometry">
            <mxRectangle width="34" height="20" as="alternateBounds" />
          </mxGeometry>
        </mxCell>
        <mxCell id="C4AZiwXbv_r8diAMs2qV-747" value="" style="shape=partialRectangle;html=1;whiteSpace=wrap;connectable=0;fillColor=none;top=0;left=0;bottom=0;right=0;overflow=hidden;strokeColor=#36393d;" parent="C4AZiwXbv_r8diAMs2qV-745" vertex="1">
          <mxGeometry x="34" width="33" height="20" as="geometry">
            <mxRectangle width="33" height="20" as="alternateBounds" />
          </mxGeometry>
        </mxCell>
        <mxCell id="1128" style="shape=partialRectangle;html=1;whiteSpace=wrap;connectable=0;fillColor=none;top=0;left=0;bottom=0;right=0;overflow=hidden;strokeColor=#36393d;" parent="C4AZiwXbv_r8diAMs2qV-745" vertex="1">
          <mxGeometry x="67" width="34" height="20" as="geometry">
            <mxRectangle width="34" height="20" as="alternateBounds" />
          </mxGeometry>
        </mxCell>
        <mxCell id="C4AZiwXbv_r8diAMs2qV-755" value="Record&lt;br&gt;&amp;nbsp;hazard" style="text;html=1;strokeColor=none;fillColor=none;align=center;verticalAlign=middle;whiteSpace=wrap;rounded=0;fontColor=#000000;fontFamily=Times New Roman;" parent="1" vertex="1">
          <mxGeometry x="742" y="1116.05" width="37" height="29" as="geometry" />
        </mxCell>
        <mxCell id="898" value="" style="rounded=1;whiteSpace=wrap;html=1;arcSize=12;fillColor=#FFFFCC;" parent="1" vertex="1">
          <mxGeometry x="942.3000000000001" y="1074.33" width="59.97" height="91" as="geometry" />
        </mxCell>
        <mxCell id="899" style="edgeStyle=none;html=1;entryX=0.137;entryY=0.15;entryDx=0;entryDy=0;entryPerimeter=0;endArrow=none;endFill=0;exitX=0.934;exitY=0.808;exitDx=0;exitDy=0;exitPerimeter=0;" parent="1" source="900" target="903" edge="1">
          <mxGeometry relative="1" as="geometry" />
        </mxCell>
        <mxCell id="900" value="" style="verticalLabelPosition=bottom;shadow=0;dashed=0;align=center;html=1;verticalAlign=top;shape=mxgraph.electrical.abstract.summation_point;strokeWidth=1;fontColor=#FF0000;" parent="1" vertex="1">
          <mxGeometry x="947.5999999999998" y="1077.33" width="15" height="15" as="geometry" />
        </mxCell>
        <mxCell id="901" style="edgeStyle=none;html=1;entryX=0.901;entryY=0.236;entryDx=0;entryDy=0;entryPerimeter=0;endArrow=none;endFill=0;exitX=0.08;exitY=0.782;exitDx=0;exitDy=0;exitPerimeter=0;" parent="1" source="903" target="904" edge="1">
          <mxGeometry relative="1" as="geometry" />
        </mxCell>
        <mxCell id="902" style="edgeStyle=none;html=1;endArrow=none;endFill=0;entryX=0.215;entryY=0.1;entryDx=0;entryDy=0;entryPerimeter=0;exitX=0.821;exitY=0.943;exitDx=0;exitDy=0;exitPerimeter=0;" parent="1" source="903" target="911" edge="1">
          <mxGeometry relative="1" as="geometry" />
        </mxCell>
        <mxCell id="903" value="" style="verticalLabelPosition=bottom;shadow=0;dashed=0;align=center;html=1;verticalAlign=top;shape=mxgraph.electrical.abstract.summation_point;strokeWidth=1;fontColor=#FF0000;" parent="1" vertex="1">
          <mxGeometry x="966.4999999999999" y="1092.33" width="15" height="15" as="geometry" />
        </mxCell>
        <mxCell id="904" value="" style="verticalLabelPosition=bottom;shadow=0;dashed=0;align=center;html=1;verticalAlign=top;shape=mxgraph.electrical.abstract.summation_point;strokeWidth=1;fontColor=#FF0000;" parent="1" vertex="1">
          <mxGeometry x="947.5999999999998" y="1104.33" width="15" height="15" as="geometry" />
        </mxCell>
        <mxCell id="905" style="edgeStyle=none;html=1;entryX=0.097;entryY=0.23;entryDx=0;entryDy=0;entryPerimeter=0;endArrow=none;endFill=0;exitX=0.928;exitY=0.799;exitDx=0;exitDy=0;exitPerimeter=0;" parent="1" source="906" target="910" edge="1">
          <mxGeometry relative="1" as="geometry" />
        </mxCell>
        <mxCell id="906" value="" style="verticalLabelPosition=bottom;shadow=0;dashed=0;align=center;html=1;verticalAlign=top;shape=mxgraph.electrical.abstract.summation_point;strokeWidth=1;fontColor=#FF0000;" parent="1" vertex="1">
          <mxGeometry x="947.5999999999998" y="1123.31" width="15" height="15" as="geometry" />
        </mxCell>
        <mxCell id="907" value="" style="verticalLabelPosition=bottom;shadow=0;dashed=0;align=center;html=1;verticalAlign=top;shape=mxgraph.electrical.abstract.summation_point;strokeWidth=1;fontColor=#FF0000;" parent="1" vertex="1">
          <mxGeometry x="947.5999999999998" y="1147.31" width="15" height="15" as="geometry" />
        </mxCell>
        <mxCell id="908" style="edgeStyle=none;html=1;endArrow=none;endFill=0;exitX=0.072;exitY=0.796;exitDx=0;exitDy=0;exitPerimeter=0;" parent="1" source="910" edge="1">
          <mxGeometry relative="1" as="geometry">
            <mxPoint x="961.2999999999998" y="1151.6299999999999" as="targetPoint" />
          </mxGeometry>
        </mxCell>
        <mxCell id="909" style="edgeStyle=none;html=1;endArrow=none;endFill=0;exitX=0.831;exitY=0.136;exitDx=0;exitDy=0;exitPerimeter=0;entryX=0.217;entryY=0.907;entryDx=0;entryDy=0;entryPerimeter=0;" parent="1" source="910" target="911" edge="1">
          <mxGeometry relative="1" as="geometry" />
        </mxCell>
        <mxCell id="910" value="" style="verticalLabelPosition=bottom;shadow=0;dashed=0;align=center;html=1;verticalAlign=top;shape=mxgraph.electrical.abstract.summation_point;strokeWidth=1;fontColor=#FF0000;" parent="1" vertex="1">
          <mxGeometry x="966.4999999999999" y="1135.31" width="15" height="15" as="geometry" />
        </mxCell>
        <mxCell id="1151" style="edgeStyle=orthogonalEdgeStyle;html=1;strokeColor=#0066CC;fontFamily=Linux Libertine;fontSource=https%3A%2F%2Ffonts.googleapis.com%2Fcss%3Ffamily%3DLinux%2BLibertine;endArrow=blockThin;endFill=1;" parent="1" source="911" edge="1">
          <mxGeometry relative="1" as="geometry">
            <mxPoint x="1057.6129150390625" y="1121.1299999999999" as="targetPoint" />
          </mxGeometry>
        </mxCell>
        <mxCell id="911" value="" style="verticalLabelPosition=bottom;shadow=0;dashed=0;align=center;html=1;verticalAlign=top;shape=mxgraph.electrical.abstract.summation_point;strokeWidth=1;fontColor=#FF0000;" parent="1" vertex="1">
          <mxGeometry x="980.2999999999998" y="1113.6299999999999" width="15" height="15" as="geometry" />
        </mxCell>
        <mxCell id="912" value="&lt;span style=&quot;&quot;&gt;&lt;span style=&quot;color: rgb(51, 51, 51); font-size: 12px; font-style: normal; font-variant-ligatures: normal; font-variant-caps: normal; font-weight: 400; letter-spacing: normal; orphans: 2; text-align: center; text-indent: 0px; text-transform: none; widows: 2; word-spacing: 0px; -webkit-text-stroke-width: 0px; text-decoration-thickness: initial; text-decoration-style: initial; text-decoration-color: initial; float: none; display: inline !important;&quot;&gt;&lt;font data-font-src=&quot;https://fonts.googleapis.com/css?family=Linux+Libertine&quot; face=&quot;Linux Libertine&quot;&gt;Dyna Adder 1&lt;/font&gt;&lt;/span&gt;&lt;/span&gt;" style="text;whiteSpace=wrap;html=1;labelBackgroundColor=#FFFFFF;" parent="1" vertex="1">
          <mxGeometry x="935.79" y="1049.6799999999998" width="73" height="24.65" as="geometry" />
        </mxCell>
        <mxCell id="605" style="edgeStyle=orthogonalEdgeStyle;html=1;entryX=0.005;entryY=0.847;entryDx=0;entryDy=0;entryPerimeter=0;strokeColor=#FF9933;fontFamily=Times New Roman;fontColor=#000000;startArrow=blockThin;startFill=1;endArrow=blockThin;endFill=1;" parent="1" target="127" edge="1">
          <mxGeometry relative="1" as="geometry">
            <Array as="points">
              <mxPoint x="642" y="1152.05" />
              <mxPoint x="642" y="1229.05" />
            </Array>
            <mxPoint x="659" y="1152.05" as="sourcePoint" />
          </mxGeometry>
        </mxCell>
        <mxCell id="943" value="" style="shape=table;startSize=0;container=1;collapsible=0;childLayout=tableLayout;fontSize=24;strokeWidth=0.5;" parent="1" vertex="1">
          <mxGeometry x="91" y="933.98" width="303" height="30" as="geometry" />
        </mxCell>
        <mxCell id="944" value="" style="shape=tableRow;horizontal=0;startSize=0;swimlaneHead=0;swimlaneBody=0;strokeColor=inherit;top=0;left=0;bottom=0;right=0;collapsible=0;dropTarget=0;fillColor=none;points=[[0,0.5],[1,0.5]];portConstraint=eastwest;fontSize=24;" parent="943" vertex="1">
          <mxGeometry width="303" height="30" as="geometry" />
        </mxCell>
        <mxCell id="945" value="&lt;font face=&quot;Linux Libertine&quot; data-font-src=&quot;https://fonts.googleapis.com/css?family=Linux+Libertine&quot; style=&quot;font-size: 14px;&quot;&gt;R[9]&lt;/font&gt;" style="shape=partialRectangle;html=1;whiteSpace=wrap;connectable=0;strokeColor=inherit;overflow=hidden;fillColor=none;top=0;left=0;bottom=0;right=0;pointerEvents=1;fontSize=24;strokeWidth=1;" parent="944" vertex="1">
          <mxGeometry width="84" height="30" as="geometry">
            <mxRectangle width="84" height="30" as="alternateBounds" />
          </mxGeometry>
        </mxCell>
        <mxCell id="946" value="&lt;font data-font-src=&quot;https://fonts.googleapis.com/css?family=Linux+Libertine&quot; style=&quot;&quot;&gt;&lt;font style=&quot;font-size: 14px;&quot; data-font-src=&quot;https://fonts.googleapis.com/css?family=Linux+Libertine&quot; face=&quot;Linux Libertine&quot;&gt;R[10] += V[1] * 1&amp;nbsp;&lt;/font&gt;&lt;br&gt;&lt;/font&gt;" style="shape=partialRectangle;html=1;whiteSpace=wrap;connectable=0;strokeColor=inherit;overflow=hidden;fillColor=none;top=0;left=0;bottom=0;right=0;pointerEvents=1;fontSize=24;" parent="944" vertex="1">
          <mxGeometry x="84" width="141" height="30" as="geometry">
            <mxRectangle width="141" height="30" as="alternateBounds" />
          </mxGeometry>
        </mxCell>
        <mxCell id="947" value="&lt;span style=&quot;font-size: 14px;&quot;&gt;&lt;font style=&quot;font-size: 14px;&quot; data-font-src=&quot;https://fonts.googleapis.com/css?family=Linux+Libertine&quot; face=&quot;Linux Libertine&quot;&gt;R&lt;span style=&quot;background-color: rgb(255, 242, 204);&quot;&gt;[31]&lt;/span&gt;&lt;/font&gt;&lt;/span&gt;" style="shape=partialRectangle;html=1;whiteSpace=wrap;connectable=0;strokeColor=inherit;overflow=hidden;fillColor=none;top=0;left=0;bottom=0;right=0;pointerEvents=1;fontSize=24;" parent="944" vertex="1">
          <mxGeometry x="225" width="78" height="30" as="geometry">
            <mxRectangle width="78" height="30" as="alternateBounds" />
          </mxGeometry>
        </mxCell>
        <mxCell id="948" value="" style="shape=table;startSize=0;container=1;collapsible=0;childLayout=tableLayout;fontSize=24;strokeWidth=0.5;" parent="1" vertex="1">
          <mxGeometry x="92" y="999.3" width="302" height="30" as="geometry" />
        </mxCell>
        <mxCell id="949" value="" style="shape=tableRow;horizontal=0;startSize=0;swimlaneHead=0;swimlaneBody=0;strokeColor=inherit;top=0;left=0;bottom=0;right=0;collapsible=0;dropTarget=0;fillColor=none;points=[[0,0.5],[1,0.5]];portConstraint=eastwest;fontSize=24;" parent="948" vertex="1">
          <mxGeometry width="302" height="30" as="geometry" />
        </mxCell>
        <mxCell id="950" value="&lt;font face=&quot;Linux Libertine&quot; data-font-src=&quot;https://fonts.googleapis.com/css?family=Linux+Libertine&quot; style=&quot;font-size: 14px;&quot;&gt;R[22]&lt;/font&gt;" style="shape=partialRectangle;html=1;whiteSpace=wrap;connectable=0;strokeColor=inherit;overflow=hidden;fillColor=none;top=0;left=0;bottom=0;right=0;pointerEvents=1;fontSize=24;strokeWidth=1;" parent="949" vertex="1">
          <mxGeometry width="82" height="30" as="geometry">
            <mxRectangle width="82" height="30" as="alternateBounds" />
          </mxGeometry>
        </mxCell>
        <mxCell id="951" value="&lt;font data-font-src=&quot;https://fonts.googleapis.com/css?family=Linux+Libertine&quot; style=&quot;font-size: 14px;&quot;&gt;&lt;font style=&quot;font-size: 14px;&quot; data-font-src=&quot;https://fonts.googleapis.com/css?family=Linux+Libertine&quot; face=&quot;Linux Libertine&quot;&gt;R&lt;span style=&quot;background-color: rgb(255, 242, 204);&quot;&gt;[31]&lt;/span&gt; += V[3] * 10&amp;nbsp;&lt;/font&gt;&lt;br&gt;&lt;/font&gt;" style="shape=partialRectangle;html=1;whiteSpace=wrap;connectable=0;strokeColor=inherit;overflow=hidden;fillColor=none;top=0;left=0;bottom=0;right=0;pointerEvents=1;fontSize=24;" parent="949" vertex="1">
          <mxGeometry x="82" width="141" height="30" as="geometry">
            <mxRectangle width="141" height="30" as="alternateBounds" />
          </mxGeometry>
        </mxCell>
        <mxCell id="952" value="&lt;font style=&quot;font-size: 14px;&quot; data-font-src=&quot;https://fonts.googleapis.com/css?family=Linux+Libertine&quot; face=&quot;Linux Libertine&quot;&gt;R[2]&lt;/font&gt;" style="shape=partialRectangle;html=1;whiteSpace=wrap;connectable=0;strokeColor=inherit;overflow=hidden;fillColor=none;top=0;left=0;bottom=0;right=0;pointerEvents=1;fontSize=24;" parent="949" vertex="1">
          <mxGeometry x="223" width="79" height="30" as="geometry">
            <mxRectangle width="79" height="30" as="alternateBounds" />
          </mxGeometry>
        </mxCell>
        <mxCell id="954" value="&lt;span style=&quot;color: rgb(0, 0, 0); font-family: &amp;quot;Linux Libertine&amp;quot;; font-style: normal; font-variant-ligatures: normal; font-variant-caps: normal; font-weight: 400; letter-spacing: normal; orphans: 2; text-align: center; text-indent: 0px; text-transform: none; widows: 2; word-spacing: 0px; -webkit-text-stroke-width: 0px; text-decoration-thickness: initial; text-decoration-style: initial; text-decoration-color: initial; float: none; display: inline !important;&quot;&gt;&lt;font style=&quot;font-size: 12px;&quot;&gt;Accumulate&lt;/font&gt;&lt;/span&gt;" style="text;whiteSpace=wrap;html=1;fontSize=12;fontFamily=Linux Libertine;" parent="1" vertex="1">
          <mxGeometry x="208.00435844089674" y="909.9939236582879" width="96" height="39" as="geometry" />
        </mxCell>
        <mxCell id="955" value="&lt;span style=&quot;color: rgb(0, 0, 0); font-family: &amp;quot;Linux Libertine&amp;quot;; font-style: normal; font-variant-ligatures: normal; font-variant-caps: normal; font-weight: 400; letter-spacing: normal; orphans: 2; text-align: center; text-indent: 0px; text-transform: none; widows: 2; word-spacing: 0px; -webkit-text-stroke-width: 0px; text-decoration-thickness: initial; text-decoration-style: initial; text-decoration-color: initial; float: none; display: inline !important;&quot;&gt;&lt;font style=&quot;font-size: 12px;&quot;&gt;Write&lt;/font&gt;&lt;/span&gt;" style="text;whiteSpace=wrap;html=1;fontSize=12;fontFamily=Linux Libertine;" parent="1" vertex="1">
          <mxGeometry x="338.9260975713316" y="909.9995758322011" width="60" height="39" as="geometry" />
        </mxCell>
        <mxCell id="956" value="&lt;span style=&quot;color: rgb(0, 0, 0); font-family: &amp;quot;Linux Libertine&amp;quot;; font-style: normal; font-variant-ligatures: normal; font-variant-caps: normal; font-weight: 400; letter-spacing: normal; orphans: 2; text-align: center; text-indent: 0px; text-transform: none; widows: 2; word-spacing: 0px; -webkit-text-stroke-width: 0px; text-decoration-thickness: initial; text-decoration-style: initial; text-decoration-color: initial; float: none; display: inline !important;&quot;&gt;&lt;font style=&quot;font-size: 12px;&quot;&gt;Read&lt;/font&gt;&lt;/span&gt;" style="text;whiteSpace=wrap;html=1;fontSize=12;fontFamily=Linux Libertine;" parent="1" vertex="1">
          <mxGeometry x="118.00479322350549" y="909.9960975713316" width="56" height="39" as="geometry" />
        </mxCell>
        <mxCell id="960" value="&lt;span style=&quot;color: rgb(0, 0, 0); font-family: &amp;quot;Linux Libertine&amp;quot;; font-size: 14px; font-style: normal; font-variant-ligatures: normal; font-variant-caps: normal; font-weight: 400; letter-spacing: normal; orphans: 2; text-align: center; text-indent: 0px; text-transform: none; widows: 2; word-spacing: 0px; -webkit-text-stroke-width: 0px; text-decoration-thickness: initial; text-decoration-style: initial; text-decoration-color: initial; float: none; display: inline !important;&quot;&gt;Pipeline 0&lt;/span&gt;" style="text;whiteSpace=wrap;html=1;fontSize=12;fontFamily=Linux Libertine;" parent="1" vertex="1">
          <mxGeometry x="25" y="934.97" width="66" height="28.02" as="geometry" />
        </mxCell>
        <mxCell id="961" value="&lt;span style=&quot;color: rgb(0, 0, 0); font-family: &amp;quot;Linux Libertine&amp;quot;; font-size: 14px; font-style: normal; font-variant-ligatures: normal; font-variant-caps: normal; font-weight: 400; letter-spacing: normal; orphans: 2; text-align: center; text-indent: 0px; text-transform: none; widows: 2; word-spacing: 0px; -webkit-text-stroke-width: 0px; text-decoration-thickness: initial; text-decoration-style: initial; text-decoration-color: initial; float: none; display: inline !important;&quot;&gt;Pipeline 2&lt;/span&gt;" style="text;whiteSpace=wrap;html=1;fontSize=12;fontFamily=Linux Libertine;" parent="1" vertex="1">
          <mxGeometry x="25" y="997" width="63" height="30" as="geometry" />
        </mxCell>
        <mxCell id="968" value="" style="shape=table;startSize=0;container=1;collapsible=0;childLayout=tableLayout;fontSize=24;" parent="1" vertex="1">
          <mxGeometry x="658.98" y="924" width="322.02" height="30" as="geometry" />
        </mxCell>
        <mxCell id="969" value="" style="shape=tableRow;horizontal=0;startSize=0;swimlaneHead=0;swimlaneBody=0;strokeColor=inherit;top=0;left=0;bottom=0;right=0;collapsible=0;dropTarget=0;fillColor=none;points=[[0,0.5],[1,0.5]];portConstraint=eastwest;fontSize=24;" parent="968" vertex="1">
          <mxGeometry width="322.02" height="30" as="geometry" />
        </mxCell>
        <mxCell id="970" value="&lt;font face=&quot;Linux Libertine&quot; data-font-src=&quot;https://fonts.googleapis.com/css?family=Linux+Libertine&quot; style=&quot;font-size: 16px;&quot;&gt;R[19]&lt;/font&gt;" style="shape=partialRectangle;html=1;whiteSpace=wrap;connectable=0;strokeColor=inherit;overflow=hidden;fillColor=none;top=0;left=0;bottom=0;right=0;pointerEvents=1;fontSize=24;strokeWidth=1;" parent="969" vertex="1">
          <mxGeometry width="73" height="30" as="geometry">
            <mxRectangle width="73" height="30" as="alternateBounds" />
          </mxGeometry>
        </mxCell>
        <mxCell id="971" value="&lt;div style=&quot;text-align: left;&quot;&gt;&lt;span style=&quot;font-size: 16px; font-family: &amp;quot;Linux Libertine&amp;quot;; background-color: initial;&quot;&gt;R&lt;/span&gt;&lt;span style=&quot;font-size: 16px; font-family: &amp;quot;Linux Libertine&amp;quot;; background-color: rgb(204, 229, 255);&quot;&gt;[1]&lt;/span&gt;&lt;span style=&quot;font-size: 16px; font-family: &amp;quot;Linux Libertine&amp;quot;; background-color: initial;&quot;&gt; += V&lt;/span&gt;&lt;span style=&quot;font-size: 16px; font-family: &amp;quot;Linux Libertine&amp;quot;;&quot;&gt;[1]&lt;/span&gt;&lt;span style=&quot;font-size: 16px; font-family: &amp;quot;Linux Libertine&amp;quot;; background-color: initial;&quot;&gt; * &lt;/span&gt;&lt;span style=&quot;font-size: 16px; font-family: &amp;quot;Linux Libertine&amp;quot;; background-color: rgb(218, 232, 252);&quot;&gt;3&lt;/span&gt;&lt;span style=&quot;font-size: 16px; font-family: &amp;quot;Linux Libertine&amp;quot;; background-color: initial;&quot;&gt;&amp;nbsp;&lt;/span&gt;&lt;/div&gt;" style="shape=partialRectangle;html=1;whiteSpace=wrap;connectable=0;strokeColor=inherit;overflow=hidden;fillColor=none;top=0;left=0;bottom=0;right=0;pointerEvents=1;fontSize=24;" parent="969" vertex="1">
          <mxGeometry x="73" width="190" height="30" as="geometry">
            <mxRectangle width="190" height="30" as="alternateBounds" />
          </mxGeometry>
        </mxCell>
        <mxCell id="972" value="&lt;span style=&quot;font-size: 16px;&quot;&gt;&lt;font style=&quot;font-size: 16px;&quot; data-font-src=&quot;https://fonts.googleapis.com/css?family=Linux+Libertine&quot; face=&quot;Linux Libertine&quot;&gt;R[40]&lt;/font&gt;&lt;/span&gt;" style="shape=partialRectangle;html=1;whiteSpace=wrap;connectable=0;strokeColor=inherit;overflow=hidden;fillColor=none;top=0;left=0;bottom=0;right=0;pointerEvents=1;fontSize=24;" parent="969" vertex="1">
          <mxGeometry x="263" width="59" height="30" as="geometry">
            <mxRectangle width="59" height="30" as="alternateBounds" />
          </mxGeometry>
        </mxCell>
        <mxCell id="973" value="" style="shape=table;startSize=0;container=1;collapsible=0;childLayout=tableLayout;fontSize=24;" parent="1" vertex="1">
          <mxGeometry x="658.98" y="962.99" width="323.02" height="30" as="geometry" />
        </mxCell>
        <mxCell id="974" value="" style="shape=tableRow;horizontal=0;startSize=0;swimlaneHead=0;swimlaneBody=0;strokeColor=inherit;top=0;left=0;bottom=0;right=0;collapsible=0;dropTarget=0;fillColor=none;points=[[0,0.5],[1,0.5]];portConstraint=eastwest;fontSize=24;" parent="973" vertex="1">
          <mxGeometry width="323.02" height="30" as="geometry" />
        </mxCell>
        <mxCell id="975" value="&lt;font face=&quot;Linux Libertine&quot; data-font-src=&quot;https://fonts.googleapis.com/css?family=Linux+Libertine&quot; style=&quot;font-size: 16px;&quot;&gt;R[8]&lt;/font&gt;" style="shape=partialRectangle;html=1;whiteSpace=wrap;connectable=0;strokeColor=inherit;overflow=hidden;fillColor=none;top=0;left=0;bottom=0;right=0;pointerEvents=1;fontSize=24;strokeWidth=1;" parent="974" vertex="1">
          <mxGeometry width="73" height="30" as="geometry">
            <mxRectangle width="73" height="30" as="alternateBounds" />
          </mxGeometry>
        </mxCell>
        <mxCell id="976" value="&lt;div style=&quot;text-align: left;&quot;&gt;&lt;span style=&quot;font-size: 16px; font-family: &amp;quot;Linux Libertine&amp;quot;; background-color: initial;&quot;&gt;R&lt;/span&gt;&lt;span style=&quot;font-size: 16px; font-family: &amp;quot;Linux Libertine&amp;quot;; background-color: rgb(204, 229, 255);&quot;&gt;[1]&lt;/span&gt;&lt;span style=&quot;font-size: 16px; font-family: &amp;quot;Linux Libertine&amp;quot;; background-color: initial;&quot;&gt; += V&lt;/span&gt;&lt;span style=&quot;font-size: 16px; font-family: &amp;quot;Linux Libertine&amp;quot;;&quot;&gt;[3]&lt;/span&gt;&lt;span style=&quot;font-size: 16px; font-family: &amp;quot;Linux Libertine&amp;quot;; background-color: initial;&quot;&gt; * &lt;/span&gt;&lt;span style=&quot;font-size: 16px; font-family: &amp;quot;Linux Libertine&amp;quot;; background-color: rgb(218, 232, 252);&quot;&gt;29&lt;/span&gt;&lt;span style=&quot;font-size: 16px; font-family: &amp;quot;Linux Libertine&amp;quot;; background-color: initial;&quot;&gt;&amp;nbsp;&lt;/span&gt;&lt;/div&gt;" style="shape=partialRectangle;html=1;whiteSpace=wrap;connectable=0;strokeColor=inherit;overflow=hidden;fillColor=none;top=0;left=0;bottom=0;right=0;pointerEvents=1;fontSize=24;" parent="974" vertex="1">
          <mxGeometry x="73" width="191" height="30" as="geometry">
            <mxRectangle width="191" height="30" as="alternateBounds" />
          </mxGeometry>
        </mxCell>
        <mxCell id="977" value="&lt;span style=&quot;font-size: 16px;&quot;&gt;&lt;font style=&quot;font-size: 16px;&quot; data-font-src=&quot;https://fonts.googleapis.com/css?family=Linux+Libertine&quot; face=&quot;Linux Libertine&quot;&gt;R[3]&lt;/font&gt;&lt;/span&gt;" style="shape=partialRectangle;html=1;whiteSpace=wrap;connectable=0;strokeColor=inherit;overflow=hidden;fillColor=none;top=0;left=0;bottom=0;right=0;pointerEvents=1;fontSize=24;" parent="974" vertex="1">
          <mxGeometry x="264" width="59" height="30" as="geometry">
            <mxRectangle width="59" height="30" as="alternateBounds" />
          </mxGeometry>
        </mxCell>
        <mxCell id="978" value="&lt;span style=&quot;color: rgb(0, 0, 0); font-family: &amp;quot;Linux Libertine&amp;quot;; font-style: normal; font-variant-ligatures: normal; font-variant-caps: normal; font-weight: 400; letter-spacing: normal; orphans: 2; text-align: center; text-indent: 0px; text-transform: none; widows: 2; word-spacing: 0px; -webkit-text-stroke-width: 0px; text-decoration-thickness: initial; text-decoration-style: initial; text-decoration-color: initial; float: none; display: inline !important;&quot;&gt;&lt;font style=&quot;font-size: 12px;&quot;&gt;Accumulate&lt;/font&gt;&lt;/span&gt;" style="text;whiteSpace=wrap;html=1;fontSize=12;fontFamily=Linux Libertine;" parent="1" vertex="1">
          <mxGeometry x="844.0043584408968" y="900.0039236582879" width="96" height="39" as="geometry" />
        </mxCell>
        <mxCell id="979" value="&lt;span style=&quot;color: rgb(0, 0, 0); font-family: &amp;quot;Linux Libertine&amp;quot;; font-style: normal; font-variant-ligatures: normal; font-variant-caps: normal; font-weight: 400; letter-spacing: normal; orphans: 2; text-align: center; text-indent: 0px; text-transform: none; widows: 2; word-spacing: 0px; -webkit-text-stroke-width: 0px; text-decoration-thickness: initial; text-decoration-style: initial; text-decoration-color: initial; float: none; display: inline !important;&quot;&gt;&lt;font style=&quot;font-size: 12px;&quot;&gt;Write&lt;/font&gt;&lt;/span&gt;" style="text;whiteSpace=wrap;html=1;fontSize=12;fontFamily=Linux Libertine;" parent="1" vertex="1">
          <mxGeometry x="1024.9960975713316" y="899.9995758322011" width="60" height="39" as="geometry" />
        </mxCell>
        <mxCell id="980" value="&lt;span style=&quot;color: rgb(0, 0, 0); font-family: &amp;quot;Linux Libertine&amp;quot;; font-style: normal; font-variant-ligatures: normal; font-variant-caps: normal; font-weight: 400; letter-spacing: normal; orphans: 2; text-align: center; text-indent: 0px; text-transform: none; widows: 2; word-spacing: 0px; -webkit-text-stroke-width: 0px; text-decoration-thickness: initial; text-decoration-style: initial; text-decoration-color: initial; float: none; display: inline !important;&quot;&gt;&lt;font style=&quot;font-size: 12px;&quot;&gt;Read&lt;/font&gt;&lt;/span&gt;" style="text;whiteSpace=wrap;html=1;fontSize=12;fontFamily=Linux Libertine;" parent="1" vertex="1">
          <mxGeometry x="688.9847932235054" y="900.0060975713316" width="56" height="39" as="geometry" />
        </mxCell>
        <mxCell id="981" value="&lt;span style=&quot;color: rgb(0, 0, 0); font-family: &amp;quot;Linux Libertine&amp;quot;; font-size: 14px; font-style: normal; font-variant-ligatures: normal; font-variant-caps: normal; font-weight: 400; letter-spacing: normal; orphans: 2; text-align: center; text-indent: 0px; text-transform: none; widows: 2; word-spacing: 0px; -webkit-text-stroke-width: 0px; text-decoration-thickness: initial; text-decoration-style: initial; text-decoration-color: initial; float: none; display: inline !important;&quot;&gt;Pipeline 2&lt;/span&gt;" style="text;whiteSpace=wrap;html=1;fontSize=12;fontFamily=Linux Libertine;" parent="1" vertex="1">
          <mxGeometry x="583.98" y="931" width="72" height="39" as="geometry" />
        </mxCell>
        <mxCell id="982" value="&lt;span style=&quot;color: rgb(0, 0, 0); font-family: &amp;quot;Linux Libertine&amp;quot;; font-size: 14px; font-style: normal; font-variant-ligatures: normal; font-variant-caps: normal; font-weight: 400; letter-spacing: normal; orphans: 2; text-align: center; text-indent: 0px; text-transform: none; widows: 2; word-spacing: 0px; -webkit-text-stroke-width: 0px; text-decoration-thickness: initial; text-decoration-style: initial; text-decoration-color: initial; float: none; display: inline !important;&quot;&gt;Pipeline 6&lt;/span&gt;" style="text;whiteSpace=wrap;html=1;fontSize=12;fontFamily=Linux Libertine;" parent="1" vertex="1">
          <mxGeometry x="583.98" y="964.65" width="72" height="39" as="geometry" />
        </mxCell>
        <mxCell id="988" value="&lt;span style=&quot;font-family: &amp;quot;Linux Libertine&amp;quot;; font-size: 14px; font-variant-ligatures: normal; font-variant-caps: normal; font-weight: 400; letter-spacing: normal; orphans: 2; text-align: center; text-indent: 0px; text-transform: none; widows: 2; word-spacing: 0px; -webkit-text-stroke-width: 0px; text-decoration-thickness: initial; text-decoration-style: initial; text-decoration-color: initial; float: none; display: inline !important;&quot;&gt;&lt;font style=&quot;&quot; color=&quot;#000033&quot;&gt;&lt;i&gt;Merge add&amp;nbsp;&lt;/i&gt;&lt;/font&gt;&lt;/span&gt;" style="text;whiteSpace=wrap;html=1;fontSize=12;fontFamily=Linux Libertine;" parent="1" vertex="1">
          <mxGeometry x="672.9799999999999" y="1013.7300000000004" width="72" height="39" as="geometry" />
        </mxCell>
        <mxCell id="989" value="" style="shape=table;startSize=0;container=1;collapsible=0;childLayout=tableLayout;fontSize=24;" parent="1" vertex="1">
          <mxGeometry x="750" y="1012.65" width="251" height="30" as="geometry" />
        </mxCell>
        <mxCell id="990" value="" style="shape=tableRow;horizontal=0;startSize=0;swimlaneHead=0;swimlaneBody=0;strokeColor=inherit;top=0;left=0;bottom=0;right=0;collapsible=0;dropTarget=0;fillColor=none;points=[[0,0.5],[1,0.5]];portConstraint=eastwest;fontSize=24;" parent="989" vertex="1">
          <mxGeometry width="251" height="30" as="geometry" />
        </mxCell>
        <mxCell id="991" value="&lt;div style=&quot;border-color: var(--border-color); text-align: left;&quot;&gt;&lt;span style=&quot;border-color: var(--border-color); font-size: 16px; font-family: &amp;quot;Linux Libertine&amp;quot;; background-color: initial;&quot;&gt;R&lt;/span&gt;&lt;span style=&quot;border-color: var(--border-color); font-size: 16px; font-family: &amp;quot;Linux Libertine&amp;quot;; background-color: rgb(204, 229, 255);&quot;&gt;[1]&lt;/span&gt;&lt;span style=&quot;border-color: var(--border-color); font-size: 16px; font-family: &amp;quot;Linux Libertine&amp;quot;; background-color: initial;&quot;&gt;&amp;nbsp;+= V[1] *&amp;nbsp;&lt;/span&gt;&lt;span style=&quot;border-color: var(--border-color); font-size: 16px; font-family: &amp;quot;Linux Libertine&amp;quot;; background-color: rgb(204, 229, 255);&quot;&gt;3&lt;/span&gt;&lt;span style=&quot;border-color: var(--border-color); font-size: 16px; font-family: &amp;quot;Linux Libertine&amp;quot;; background-color: initial;&quot;&gt;&amp;nbsp;+ V&lt;/span&gt;&lt;span style=&quot;border-color: var(--border-color); font-size: 16px; font-family: &amp;quot;Linux Libertine&amp;quot;;&quot;&gt;[3]&lt;/span&gt;&lt;span style=&quot;border-color: var(--border-color); font-size: 16px; font-family: &amp;quot;Linux Libertine&amp;quot;; background-color: initial;&quot;&gt;&amp;nbsp;*&amp;nbsp;&lt;/span&gt;&lt;span style=&quot;border-color: var(--border-color); font-size: 16px; font-family: &amp;quot;Linux Libertine&amp;quot;; background-color: rgb(218, 232, 252);&quot;&gt;29&lt;/span&gt;&lt;/div&gt;&lt;span style=&quot;border-color: var(--border-color); text-align: left; font-size: 16px; font-family: &amp;quot;Linux Libertine&amp;quot;; background-color: rgb(218, 232, 252);&quot;&gt;&lt;br style=&quot;border-color: var(--border-color);&quot;&gt;&lt;/span&gt;" style="shape=partialRectangle;html=1;whiteSpace=wrap;connectable=0;strokeColor=inherit;overflow=hidden;fillColor=none;top=0;left=0;bottom=0;right=0;pointerEvents=1;fontSize=24;strokeWidth=1;" parent="990" vertex="1">
          <mxGeometry width="251" height="30" as="geometry">
            <mxRectangle width="251" height="30" as="alternateBounds" />
          </mxGeometry>
        </mxCell>
        <mxCell id="1145" style="edgeStyle=orthogonalEdgeStyle;html=1;entryX=0;entryY=0.5;entryDx=0;entryDy=0;entryPerimeter=0;strokeColor=#0066CC;fontFamily=Linux Libertine;fontSource=https%3A%2F%2Ffonts.googleapis.com%2Fcss%3Ffamily%3DLinux%2BLibertine;endArrow=blockThin;endFill=1;" parent="1" source="1022" target="904" edge="1">
          <mxGeometry relative="1" as="geometry" />
        </mxCell>
        <mxCell id="1022" value="" style="shape=sumEllipse;perimeter=ellipsePerimeter;whiteSpace=wrap;html=1;backgroundOutline=1;labelBackgroundColor=#FFFFCC;fillColor=#FFFFFF;" parent="1" vertex="1">
          <mxGeometry x="906.9999999999999" y="1114.23" width="15" height="15" as="geometry" />
        </mxCell>
        <mxCell id="1053" value="&lt;font color=&quot;#cc0000&quot; data-font-src=&quot;https://fonts.googleapis.com/css?family=Linux+Libertine&quot; face=&quot;Linux Libertine&quot;&gt;forward indices&amp;nbsp;&amp;nbsp;&lt;/font&gt;" style="text;html=1;strokeColor=none;fillColor=none;align=center;verticalAlign=middle;whiteSpace=wrap;rounded=0;fontColor=#000000;fontFamily=Times New Roman;" parent="1" vertex="1">
          <mxGeometry x="267.11" y="1246.26" width="113.89" height="23" as="geometry" />
        </mxCell>
        <mxCell id="1056" value="&lt;font data-font-src=&quot;https://fonts.googleapis.com/css?family=Linux+Libertine&quot; face=&quot;Linux Libertine&quot;&gt;Sparse matrix&lt;/font&gt;" style="text;html=1;strokeColor=none;fillColor=none;align=center;verticalAlign=middle;whiteSpace=wrap;rounded=0;fontColor=#000000;fontFamily=Times New Roman;" parent="1" vertex="1">
          <mxGeometry x="494" y="1272.78" width="119" height="30" as="geometry" />
        </mxCell>
        <mxCell id="1057" value="" style="shape=sumEllipse;perimeter=ellipsePerimeter;whiteSpace=wrap;html=1;backgroundOutline=1;labelBackgroundColor=#FFFFCC;fillColor=#FFFFFF;" parent="1" vertex="1">
          <mxGeometry x="906.9999999999999" y="1162.69" width="15" height="15" as="geometry" />
        </mxCell>
        <mxCell id="1058" value="" style="shape=sumEllipse;perimeter=ellipsePerimeter;whiteSpace=wrap;html=1;backgroundOutline=1;labelBackgroundColor=#FFFFCC;fillColor=#FFFFFF;" parent="1" vertex="1">
          <mxGeometry x="906.9999999999999" y="1137.71" width="15" height="15" as="geometry" />
        </mxCell>
        <mxCell id="1059" value="" style="shape=sumEllipse;perimeter=ellipsePerimeter;whiteSpace=wrap;html=1;backgroundOutline=1;labelBackgroundColor=#FFFFCC;fillColor=#FFFFFF;" parent="1" vertex="1">
          <mxGeometry x="906.9999999999999" y="1188.66" width="15" height="15" as="geometry" />
        </mxCell>
        <mxCell id="1060" value="" style="shape=sumEllipse;perimeter=ellipsePerimeter;whiteSpace=wrap;html=1;backgroundOutline=1;labelBackgroundColor=#FFFFCC;fillColor=#FFFFFF;" parent="1" vertex="1">
          <mxGeometry x="906.9999999999999" y="1237.66" width="15" height="15" as="geometry" />
        </mxCell>
        <mxCell id="1144" style="edgeStyle=orthogonalEdgeStyle;html=1;entryX=0;entryY=0.5;entryDx=0;entryDy=0;entryPerimeter=0;fontFamily=Linux Libertine;fontSource=https%3A%2F%2Ffonts.googleapis.com%2Fcss%3Ffamily%3DLinux%2BLibertine;strokeColor=#0066CC;endArrow=blockThin;endFill=1;" parent="1" source="1061" target="907" edge="1">
          <mxGeometry relative="1" as="geometry">
            <Array as="points">
              <mxPoint x="930" y="1220.33" />
              <mxPoint x="930" y="1155.33" />
            </Array>
          </mxGeometry>
        </mxCell>
        <mxCell id="1061" value="" style="shape=sumEllipse;perimeter=ellipsePerimeter;whiteSpace=wrap;html=1;backgroundOutline=1;labelBackgroundColor=#FFFFCC;fillColor=#FFFFFF;" parent="1" vertex="1">
          <mxGeometry x="906.9999999999999" y="1212.68" width="15" height="15" as="geometry" />
        </mxCell>
        <mxCell id="1062" value="" style="shape=sumEllipse;perimeter=ellipsePerimeter;whiteSpace=wrap;html=1;backgroundOutline=1;labelBackgroundColor=#FFFFCC;fillColor=#FFFFFF;" parent="1" vertex="1">
          <mxGeometry x="907" y="1065.71" width="15" height="14.98" as="geometry" />
        </mxCell>
        <mxCell id="1063" value="" style="shape=sumEllipse;perimeter=ellipsePerimeter;whiteSpace=wrap;html=1;backgroundOutline=1;labelBackgroundColor=#FFFFCC;fillColor=#FFFFFF;" parent="1" vertex="1">
          <mxGeometry x="906.9999999999999" y="1089.71" width="15" height="15" as="geometry" />
        </mxCell>
        <mxCell id="1064" style="edgeStyle=orthogonalEdgeStyle;html=1;entryX=0;entryY=0.5;entryDx=0;entryDy=0;fontFamily=Linux Libertine;fontSource=https%3A%2F%2Ffonts.googleapis.com%2Fcss%3Ffamily%3DLinux%2BLibertine;rounded=0;endArrow=blockThin;endFill=1;strokeColor=#0066CC;" parent="1" source="C4AZiwXbv_r8diAMs2qV-730" target="1022" edge="1">
          <mxGeometry relative="1" as="geometry">
            <Array as="points">
              <mxPoint x="892" y="1150.33" />
              <mxPoint x="892" y="1121.33" />
            </Array>
          </mxGeometry>
        </mxCell>
        <mxCell id="1065" style="edgeStyle=orthogonalEdgeStyle;rounded=0;html=1;entryX=0;entryY=0.5;entryDx=0;entryDy=0;fontFamily=Linux Libertine;fontSource=https%3A%2F%2Ffonts.googleapis.com%2Fcss%3Ffamily%3DLinux%2BLibertine;endArrow=blockThin;endFill=1;strokeColor=#0066CC;" parent="1" source="C4AZiwXbv_r8diAMs2qV-730" target="1061" edge="1">
          <mxGeometry relative="1" as="geometry">
            <Array as="points">
              <mxPoint x="892" y="1150.33" />
              <mxPoint x="892" y="1220.33" />
            </Array>
          </mxGeometry>
        </mxCell>
        <mxCell id="1108" value="" style="rounded=0;whiteSpace=wrap;html=1;labelBackgroundColor=#CCE5FF;fontFamily=Linux Libertine;fontSource=https%3A%2F%2Ffonts.googleapis.com%2Fcss%3Ffamily%3DLinux%2BLibertine;fillColor=none;" parent="1" vertex="1">
          <mxGeometry x="101.74" y="1111.1299999999999" width="45" height="20" as="geometry" />
        </mxCell>
        <mxCell id="1109" value="" style="rounded=0;whiteSpace=wrap;html=1;labelBackgroundColor=#CCE5FF;fontFamily=Linux Libertine;fontSource=https%3A%2F%2Ffonts.googleapis.com%2Fcss%3Ffamily%3DLinux%2BLibertine;fillColor=none;" parent="1" vertex="1">
          <mxGeometry x="660" y="1140.05" width="37" height="19.95" as="geometry" />
        </mxCell>
        <mxCell id="1110" value="" style="rounded=0;whiteSpace=wrap;html=1;labelBackgroundColor=#CCE5FF;fontFamily=Linux Libertine;fontSource=https%3A%2F%2Ffonts.googleapis.com%2Fcss%3Ffamily%3DLinux%2BLibertine;fillColor=none;" parent="1" vertex="1">
          <mxGeometry x="101.74" y="1150.3099999999997" width="45" height="20.38" as="geometry" />
        </mxCell>
        <mxCell id="1111" value="" style="rounded=0;whiteSpace=wrap;html=1;labelBackgroundColor=#CCE5FF;fontFamily=Linux Libertine;fontSource=https%3A%2F%2Ffonts.googleapis.com%2Fcss%3Ffamily%3DLinux%2BLibertine;fillColor=none;" parent="1" vertex="1">
          <mxGeometry x="697" y="1140.05" width="42" height="19.95" as="geometry" />
        </mxCell>
        <mxCell id="1112" value="" style="rounded=0;whiteSpace=wrap;html=1;labelBackgroundColor=#CCE5FF;fontFamily=Linux Libertine;fontSource=https%3A%2F%2Ffonts.googleapis.com%2Fcss%3Ffamily%3DLinux%2BLibertine;fillColor=none;" parent="1" vertex="1">
          <mxGeometry x="660" y="1180.03" width="37" height="19.95" as="geometry" />
        </mxCell>
        <mxCell id="1113" value="" style="rounded=0;whiteSpace=wrap;html=1;labelBackgroundColor=#CCE5FF;fontFamily=Linux Libertine;fontSource=https%3A%2F%2Ffonts.googleapis.com%2Fcss%3Ffamily%3DLinux%2BLibertine;fillColor=none;" parent="1" vertex="1">
          <mxGeometry x="697" y="1180.03" width="42" height="19.95" as="geometry" />
        </mxCell>
        <mxCell id="1114" value="" style="rounded=0;whiteSpace=wrap;html=1;labelBackgroundColor=#CCE5FF;fontFamily=Linux Libertine;fontSource=https%3A%2F%2Ffonts.googleapis.com%2Fcss%3Ffamily%3DLinux%2BLibertine;fillColor=none;" parent="1" vertex="1">
          <mxGeometry x="660" y="1220" width="37" height="20" as="geometry" />
        </mxCell>
        <mxCell id="1115" value="" style="rounded=0;whiteSpace=wrap;html=1;labelBackgroundColor=#CCE5FF;fontFamily=Linux Libertine;fontSource=https%3A%2F%2Ffonts.googleapis.com%2Fcss%3Ffamily%3DLinux%2BLibertine;fillColor=none;" parent="1" vertex="1">
          <mxGeometry x="697" y="1220.05" width="42" height="19.95" as="geometry" />
        </mxCell>
        <mxCell id="1116" value="" style="rounded=0;whiteSpace=wrap;html=1;labelBackgroundColor=#CCE5FF;fontFamily=Linux Libertine;fontSource=https%3A%2F%2Ffonts.googleapis.com%2Fcss%3Ffamily%3DLinux%2BLibertine;fillColor=none;" parent="1" vertex="1">
          <mxGeometry x="660" y="1240.05" width="37" height="20" as="geometry" />
        </mxCell>
        <mxCell id="1117" value="" style="rounded=0;whiteSpace=wrap;html=1;labelBackgroundColor=#CCE5FF;fontFamily=Linux Libertine;fontSource=https%3A%2F%2Ffonts.googleapis.com%2Fcss%3Ffamily%3DLinux%2BLibertine;fillColor=none;" parent="1" vertex="1">
          <mxGeometry x="697" y="1240.05" width="42" height="20" as="geometry" />
        </mxCell>
        <mxCell id="1129" value="" style="rounded=1;whiteSpace=wrap;html=1;arcSize=12;fillColor=#FFFFCC;" parent="1" vertex="1">
          <mxGeometry x="942.3000000000001" y="1185.28" width="59.97" height="91" as="geometry" />
        </mxCell>
        <mxCell id="1130" style="edgeStyle=none;html=1;entryX=0.137;entryY=0.15;entryDx=0;entryDy=0;entryPerimeter=0;endArrow=none;endFill=0;exitX=0.934;exitY=0.808;exitDx=0;exitDy=0;exitPerimeter=0;" parent="1" source="1131" target="1134" edge="1">
          <mxGeometry relative="1" as="geometry" />
        </mxCell>
        <mxCell id="1131" value="" style="verticalLabelPosition=bottom;shadow=0;dashed=0;align=center;html=1;verticalAlign=top;shape=mxgraph.electrical.abstract.summation_point;strokeWidth=1;fontColor=#FF0000;" parent="1" vertex="1">
          <mxGeometry x="947.5999999999998" y="1188.28" width="15" height="15" as="geometry" />
        </mxCell>
        <mxCell id="1132" style="edgeStyle=none;html=1;entryX=0.901;entryY=0.236;entryDx=0;entryDy=0;entryPerimeter=0;endArrow=none;endFill=0;exitX=0.08;exitY=0.782;exitDx=0;exitDy=0;exitPerimeter=0;" parent="1" source="1134" target="1135" edge="1">
          <mxGeometry relative="1" as="geometry" />
        </mxCell>
        <mxCell id="1133" style="edgeStyle=none;html=1;endArrow=none;endFill=0;entryX=0.215;entryY=0.1;entryDx=0;entryDy=0;entryPerimeter=0;exitX=0.821;exitY=0.943;exitDx=0;exitDy=0;exitPerimeter=0;" parent="1" source="1134" target="1142" edge="1">
          <mxGeometry relative="1" as="geometry" />
        </mxCell>
        <mxCell id="1134" value="" style="verticalLabelPosition=bottom;shadow=0;dashed=0;align=center;html=1;verticalAlign=top;shape=mxgraph.electrical.abstract.summation_point;strokeWidth=1;fontColor=#FF0000;" parent="1" vertex="1">
          <mxGeometry x="966.4999999999999" y="1203.28" width="15" height="15" as="geometry" />
        </mxCell>
        <mxCell id="1135" value="" style="verticalLabelPosition=bottom;shadow=0;dashed=0;align=center;html=1;verticalAlign=top;shape=mxgraph.electrical.abstract.summation_point;strokeWidth=1;fontColor=#FF0000;" parent="1" vertex="1">
          <mxGeometry x="947.5999999999998" y="1215.28" width="15" height="15" as="geometry" />
        </mxCell>
        <mxCell id="1136" style="edgeStyle=none;html=1;entryX=0.097;entryY=0.23;entryDx=0;entryDy=0;entryPerimeter=0;endArrow=none;endFill=0;exitX=0.928;exitY=0.799;exitDx=0;exitDy=0;exitPerimeter=0;" parent="1" source="1137" target="1141" edge="1">
          <mxGeometry relative="1" as="geometry" />
        </mxCell>
        <mxCell id="1137" value="" style="verticalLabelPosition=bottom;shadow=0;dashed=0;align=center;html=1;verticalAlign=top;shape=mxgraph.electrical.abstract.summation_point;strokeWidth=1;fontColor=#FF0000;" parent="1" vertex="1">
          <mxGeometry x="947.5999999999998" y="1234.26" width="15" height="15" as="geometry" />
        </mxCell>
        <mxCell id="1138" value="" style="verticalLabelPosition=bottom;shadow=0;dashed=0;align=center;html=1;verticalAlign=top;shape=mxgraph.electrical.abstract.summation_point;strokeWidth=1;fontColor=#FF0000;" parent="1" vertex="1">
          <mxGeometry x="947.5999999999998" y="1258.26" width="15" height="15" as="geometry" />
        </mxCell>
        <mxCell id="1139" style="edgeStyle=none;html=1;endArrow=none;endFill=0;exitX=0.072;exitY=0.796;exitDx=0;exitDy=0;exitPerimeter=0;" parent="1" source="1141" edge="1">
          <mxGeometry relative="1" as="geometry">
            <mxPoint x="961.3" y="1262.5799999999997" as="targetPoint" />
          </mxGeometry>
        </mxCell>
        <mxCell id="1140" style="edgeStyle=none;html=1;endArrow=none;endFill=0;exitX=0.831;exitY=0.136;exitDx=0;exitDy=0;exitPerimeter=0;entryX=0.217;entryY=0.907;entryDx=0;entryDy=0;entryPerimeter=0;" parent="1" source="1141" target="1142" edge="1">
          <mxGeometry relative="1" as="geometry" />
        </mxCell>
        <mxCell id="1141" value="" style="verticalLabelPosition=bottom;shadow=0;dashed=0;align=center;html=1;verticalAlign=top;shape=mxgraph.electrical.abstract.summation_point;strokeWidth=1;fontColor=#FF0000;" parent="1" vertex="1">
          <mxGeometry x="966.4999999999999" y="1246.26" width="15" height="15" as="geometry" />
        </mxCell>
        <mxCell id="1153" style="edgeStyle=orthogonalEdgeStyle;html=1;strokeColor=#FF3333;fontFamily=Linux Libertine;fontSource=https%3A%2F%2Ffonts.googleapis.com%2Fcss%3Ffamily%3DLinux%2BLibertine;endArrow=blockThin;endFill=1;" parent="1" source="1142" edge="1">
          <mxGeometry relative="1" as="geometry">
            <mxPoint x="1058.238089425223" y="1232.0799999999997" as="targetPoint" />
          </mxGeometry>
        </mxCell>
        <mxCell id="1142" value="" style="verticalLabelPosition=bottom;shadow=0;dashed=0;align=center;html=1;verticalAlign=top;shape=mxgraph.electrical.abstract.summation_point;strokeWidth=1;fontColor=#FF0000;" parent="1" vertex="1">
          <mxGeometry x="980.2999999999998" y="1224.5799999999997" width="15" height="15" as="geometry" />
        </mxCell>
        <mxCell id="1143" value="&lt;span style=&quot;&quot;&gt;&lt;span style=&quot;color: rgb(51, 51, 51); font-size: 12px; font-style: normal; font-variant-ligatures: normal; font-variant-caps: normal; font-weight: 400; letter-spacing: normal; orphans: 2; text-align: center; text-indent: 0px; text-transform: none; widows: 2; word-spacing: 0px; -webkit-text-stroke-width: 0px; text-decoration-thickness: initial; text-decoration-style: initial; text-decoration-color: initial; float: none; display: inline !important;&quot;&gt;&lt;font data-font-src=&quot;https://fonts.googleapis.com/css?family=Linux+Libertine&quot; face=&quot;Linux Libertine&quot;&gt;Dyna Adder 2&lt;/font&gt;&lt;/span&gt;&lt;/span&gt;" style="text;whiteSpace=wrap;html=1;labelBackgroundColor=none;" parent="1" vertex="1">
          <mxGeometry x="935.79" y="1160.6299999999999" width="79.7" height="24.65" as="geometry" />
        </mxCell>
        <mxCell id="1146" style="edgeStyle=orthogonalEdgeStyle;html=1;entryX=0;entryY=0.5;entryDx=0;entryDy=0;strokeColor=#FF3333;fontFamily=Linux Libertine;fontSource=https%3A%2F%2Ffonts.googleapis.com%2Fcss%3Ffamily%3DLinux%2BLibertine;endArrow=blockThin;endFill=1;" parent="1" source="C4AZiwXbv_r8diAMs2qV-736" target="1059" edge="1">
          <mxGeometry relative="1" as="geometry" />
        </mxCell>
        <mxCell id="1147" style="edgeStyle=orthogonalEdgeStyle;html=1;entryX=0;entryY=0.5;entryDx=0;entryDy=0;strokeColor=#FF3333;fontFamily=Linux Libertine;fontSource=https%3A%2F%2Ffonts.googleapis.com%2Fcss%3Ffamily%3DLinux%2BLibertine;endArrow=blockThin;endFill=1;" parent="1" source="C4AZiwXbv_r8diAMs2qV-736" target="1060" edge="1">
          <mxGeometry relative="1" as="geometry">
            <Array as="points">
              <mxPoint x="887" y="1190.33" />
              <mxPoint x="887" y="1245.33" />
            </Array>
          </mxGeometry>
        </mxCell>
        <mxCell id="1148" style="edgeStyle=orthogonalEdgeStyle;html=1;entryX=0;entryY=0.5;entryDx=0;entryDy=0;entryPerimeter=0;strokeColor=#FF3333;fontFamily=Linux Libertine;fontSource=https%3A%2F%2Ffonts.googleapis.com%2Fcss%3Ffamily%3DLinux%2BLibertine;endArrow=blockThin;endFill=1;" parent="1" source="1059" target="1137" edge="1">
          <mxGeometry relative="1" as="geometry" />
        </mxCell>
        <mxCell id="1149" style="edgeStyle=orthogonalEdgeStyle;html=1;entryX=0;entryY=0.5;entryDx=0;entryDy=0;entryPerimeter=0;strokeColor=#FF3333;fontFamily=Linux Libertine;fontSource=https%3A%2F%2Ffonts.googleapis.com%2Fcss%3Ffamily%3DLinux%2BLibertine;endArrow=blockThin;endFill=1;" parent="1" source="1060" target="1138" edge="1">
          <mxGeometry relative="1" as="geometry" />
        </mxCell>
        <mxCell id="1152" value="&lt;font style=&quot;&quot; data-font-src=&quot;https://fonts.googleapis.com/css?family=Linux+Libertine&quot; face=&quot;Linux Libertine&quot;&gt;Write back R&lt;span style=&quot;background-color: rgb(204, 229, 255);&quot;&gt;[1]&lt;/span&gt;&lt;/font&gt;" style="text;html=1;strokeColor=none;fillColor=none;align=center;verticalAlign=middle;whiteSpace=wrap;rounded=0;fontColor=#000000;fontFamily=Times New Roman;" parent="1" vertex="1">
          <mxGeometry x="1005" y="1088.33" width="80" height="30" as="geometry" />
        </mxCell>
        <mxCell id="1154" value="&lt;font style=&quot;&quot; data-font-src=&quot;https://fonts.googleapis.com/css?family=Linux+Libertine&quot; face=&quot;Linux Libertine&quot;&gt;Write back R&lt;span style=&quot;background-color: rgb(255, 204, 204);&quot;&gt;[7]&lt;/span&gt;&lt;/font&gt;" style="text;html=1;strokeColor=none;fillColor=none;align=center;verticalAlign=middle;whiteSpace=wrap;rounded=0;fontColor=#000000;fontFamily=Times New Roman;" parent="1" vertex="1">
          <mxGeometry x="1002.27" y="1203.28" width="80" height="30" as="geometry" />
        </mxCell>
        <mxCell id="1156" style="shape=tableRow;horizontal=0;startSize=0;swimlaneHead=0;swimlaneBody=0;top=0;left=0;bottom=0;right=0;collapsible=0;dropTarget=0;fillColor=none;points=[[0,0.5],[1,0.5]];portConstraint=eastwest;" parent="1" vertex="1">
          <mxGeometry x="309.74" y="1212.57" width="52.53" height="20" as="geometry" />
        </mxCell>
        <mxCell id="1157" value="" style="shape=partialRectangle;html=1;whiteSpace=wrap;connectable=0;fillColor=none;top=0;left=0;bottom=0;right=0;overflow=hidden;strokeColor=#36393d;" parent="1156" vertex="1">
          <mxGeometry width="53" height="20" as="geometry">
            <mxRectangle width="53" height="20" as="alternateBounds" />
          </mxGeometry>
        </mxCell>
        <mxCell id="1158" value="" style="shape=table;html=1;whiteSpace=wrap;startSize=0;container=1;collapsible=0;childLayout=tableLayout;direction=east;fillColor=none;" parent="1" vertex="1">
          <mxGeometry x="257" y="1064.81" width="45" height="180" as="geometry" />
        </mxCell>
        <mxCell id="1159" style="shape=tableRow;horizontal=0;startSize=0;swimlaneHead=0;swimlaneBody=0;top=0;left=0;bottom=0;right=0;collapsible=0;dropTarget=0;fillColor=none;points=[[0,0.5],[1,0.5]];portConstraint=eastwest;" parent="1158" vertex="1">
          <mxGeometry width="45" height="20" as="geometry" />
        </mxCell>
        <mxCell id="1160" value="&lt;font data-font-src=&quot;https://fonts.googleapis.com/css?family=Linux+Libertine&quot; face=&quot;Linux Libertine&quot;&gt;&lt;i&gt;value&lt;/i&gt;&lt;/font&gt;" style="shape=partialRectangle;html=1;whiteSpace=wrap;connectable=0;fillColor=none;top=0;left=0;bottom=0;right=0;overflow=hidden;" parent="1159" vertex="1">
          <mxGeometry width="45" height="20" as="geometry">
            <mxRectangle width="45" height="20" as="alternateBounds" />
          </mxGeometry>
        </mxCell>
        <mxCell id="1161" style="shape=tableRow;horizontal=0;startSize=0;swimlaneHead=0;swimlaneBody=0;top=0;left=0;bottom=0;right=0;collapsible=0;dropTarget=0;fillColor=none;points=[[0,0.5],[1,0.5]];portConstraint=eastwest;" parent="1158" vertex="1">
          <mxGeometry y="20" width="45" height="20" as="geometry" />
        </mxCell>
        <mxCell id="1162" value="" style="shape=partialRectangle;html=1;whiteSpace=wrap;connectable=0;fillColor=none;top=0;left=0;bottom=0;right=0;overflow=hidden;" parent="1161" vertex="1">
          <mxGeometry width="45" height="20" as="geometry">
            <mxRectangle width="45" height="20" as="alternateBounds" />
          </mxGeometry>
        </mxCell>
        <mxCell id="1163" style="shape=tableRow;horizontal=0;startSize=0;swimlaneHead=0;swimlaneBody=0;top=0;left=0;bottom=0;right=0;collapsible=0;dropTarget=0;fillColor=none;points=[[0,0.5],[1,0.5]];portConstraint=eastwest;" parent="1158" vertex="1">
          <mxGeometry y="40" width="45" height="20" as="geometry" />
        </mxCell>
        <mxCell id="1164" value="" style="shape=partialRectangle;html=1;whiteSpace=wrap;connectable=0;fillColor=none;top=0;left=0;bottom=0;right=0;overflow=hidden;" parent="1163" vertex="1">
          <mxGeometry width="45" height="20" as="geometry">
            <mxRectangle width="45" height="20" as="alternateBounds" />
          </mxGeometry>
        </mxCell>
        <mxCell id="1165" style="shape=tableRow;horizontal=0;startSize=0;swimlaneHead=0;swimlaneBody=0;top=0;left=0;bottom=0;right=0;collapsible=0;dropTarget=0;fillColor=none;points=[[0,0.5],[1,0.5]];portConstraint=eastwest;" parent="1158" vertex="1">
          <mxGeometry y="60" width="45" height="20" as="geometry" />
        </mxCell>
        <mxCell id="1166" value="&lt;span style=&quot;border-color: var(--border-color); font-size: 14px; font-family: &amp;quot;Linux Libertine&amp;quot;;&quot;&gt;R&lt;/span&gt;&lt;span style=&quot;border-color: var(--border-color); font-size: 14px; font-family: &amp;quot;Linux Libertine&amp;quot;; background-color: rgb(255, 242, 204);&quot;&gt;[31]&lt;/span&gt;" style="shape=partialRectangle;html=1;whiteSpace=wrap;connectable=0;fillColor=none;top=0;left=0;bottom=0;right=0;overflow=hidden;strokeColor=#d6b656;" parent="1165" vertex="1">
          <mxGeometry width="45" height="20" as="geometry">
            <mxRectangle width="45" height="20" as="alternateBounds" />
          </mxGeometry>
        </mxCell>
        <mxCell id="1167" style="shape=tableRow;horizontal=0;startSize=0;swimlaneHead=0;swimlaneBody=0;top=0;left=0;bottom=0;right=0;collapsible=0;dropTarget=0;fillColor=none;points=[[0,0.5],[1,0.5]];portConstraint=eastwest;" parent="1158" vertex="1">
          <mxGeometry y="80" width="45" height="20" as="geometry" />
        </mxCell>
        <mxCell id="1168" value="" style="shape=partialRectangle;html=1;whiteSpace=wrap;connectable=0;fillColor=none;top=0;left=0;bottom=0;right=0;overflow=hidden;" parent="1167" vertex="1">
          <mxGeometry width="45" height="20" as="geometry">
            <mxRectangle width="45" height="20" as="alternateBounds" />
          </mxGeometry>
        </mxCell>
        <mxCell id="1169" style="shape=tableRow;horizontal=0;startSize=0;swimlaneHead=0;swimlaneBody=0;top=0;left=0;bottom=0;right=0;collapsible=0;dropTarget=0;fillColor=none;points=[[0,0.5],[1,0.5]];portConstraint=eastwest;" parent="1158" vertex="1">
          <mxGeometry y="100" width="45" height="20" as="geometry" />
        </mxCell>
        <mxCell id="1170" value="&lt;span style=&quot;border-color: var(--border-color); font-size: 14px; font-family: &amp;quot;Linux Libertine&amp;quot;;&quot;&gt;R&lt;/span&gt;&lt;span style=&quot;border-color: var(--border-color); font-size: 14px; font-family: &amp;quot;Linux Libertine&amp;quot;; background-color: rgb(102, 204, 0);&quot;&gt;[44]&lt;/span&gt;" style="shape=partialRectangle;html=1;whiteSpace=wrap;connectable=0;fillColor=none;top=0;left=0;bottom=0;right=0;overflow=hidden;" parent="1169" vertex="1">
          <mxGeometry width="45" height="20" as="geometry">
            <mxRectangle width="45" height="20" as="alternateBounds" />
          </mxGeometry>
        </mxCell>
        <mxCell id="1171" style="shape=tableRow;horizontal=0;startSize=0;swimlaneHead=0;swimlaneBody=0;top=0;left=0;bottom=0;right=0;collapsible=0;dropTarget=0;fillColor=none;points=[[0,0.5],[1,0.5]];portConstraint=eastwest;" parent="1158" vertex="1">
          <mxGeometry y="120" width="45" height="20" as="geometry" />
        </mxCell>
        <mxCell id="1172" value="" style="shape=partialRectangle;html=1;whiteSpace=wrap;connectable=0;fillColor=none;top=0;left=0;bottom=0;right=0;overflow=hidden;" parent="1171" vertex="1">
          <mxGeometry width="45" height="20" as="geometry">
            <mxRectangle width="45" height="20" as="alternateBounds" />
          </mxGeometry>
        </mxCell>
        <mxCell id="1173" style="shape=tableRow;horizontal=0;startSize=0;swimlaneHead=0;swimlaneBody=0;top=0;left=0;bottom=0;right=0;collapsible=0;dropTarget=0;fillColor=none;points=[[0,0.5],[1,0.5]];portConstraint=eastwest;" parent="1158" vertex="1">
          <mxGeometry y="140" width="45" height="20" as="geometry" />
        </mxCell>
        <mxCell id="1174" value="" style="shape=partialRectangle;html=1;whiteSpace=wrap;connectable=0;fillColor=none;top=0;left=0;bottom=0;right=0;overflow=hidden;" parent="1173" vertex="1">
          <mxGeometry width="45" height="20" as="geometry">
            <mxRectangle width="45" height="20" as="alternateBounds" />
          </mxGeometry>
        </mxCell>
        <mxCell id="1175" style="shape=tableRow;horizontal=0;startSize=0;swimlaneHead=0;swimlaneBody=0;top=0;left=0;bottom=0;right=0;collapsible=0;dropTarget=0;fillColor=none;points=[[0,0.5],[1,0.5]];portConstraint=eastwest;" parent="1158" vertex="1">
          <mxGeometry y="160" width="45" height="20" as="geometry" />
        </mxCell>
        <mxCell id="1176" value="" style="shape=partialRectangle;html=1;whiteSpace=wrap;connectable=0;fillColor=none;top=0;left=0;bottom=0;right=0;overflow=hidden;strokeColor=#36393d;" parent="1175" vertex="1">
          <mxGeometry width="45" height="20" as="geometry">
            <mxRectangle width="45" height="20" as="alternateBounds" />
          </mxGeometry>
        </mxCell>
        <mxCell id="1204" value="&lt;span style=&quot;color: rgb(0, 0, 0); font-family: &amp;quot;Linux Libertine&amp;quot;; font-variant-ligatures: normal; font-variant-caps: normal; font-weight: 400; letter-spacing: normal; orphans: 2; text-align: center; text-indent: 0px; text-transform: none; widows: 2; word-spacing: 0px; -webkit-text-stroke-width: 0px; text-decoration-thickness: initial; text-decoration-style: initial; text-decoration-color: initial; float: none; display: inline !important;&quot;&gt;&lt;font style=&quot;font-size: 12px;&quot;&gt;&lt;i style=&quot;&quot;&gt;time 1&lt;/i&gt;&lt;/font&gt;&lt;/span&gt;" style="text;whiteSpace=wrap;html=1;fontSize=12;fontFamily=Linux Libertine;" parent="1" vertex="1">
          <mxGeometry x="148.74" y="1234" width="45" height="24.07" as="geometry" />
        </mxCell>
        <mxCell id="1205" value="&lt;span style=&quot;color: rgb(0, 0, 0); font-family: &amp;quot;Linux Libertine&amp;quot;; font-variant-ligatures: normal; font-variant-caps: normal; font-weight: 400; letter-spacing: normal; orphans: 2; text-align: center; text-indent: 0px; text-transform: none; widows: 2; word-spacing: 0px; -webkit-text-stroke-width: 0px; text-decoration-thickness: initial; text-decoration-style: initial; text-decoration-color: initial; float: none; display: inline !important;&quot;&gt;&lt;font style=&quot;font-size: 12px;&quot;&gt;&lt;i style=&quot;&quot;&gt;time 2&lt;/i&gt;&lt;/font&gt;&lt;/span&gt;" style="text;whiteSpace=wrap;html=1;fontSize=12;fontFamily=Linux Libertine;" parent="1" vertex="1">
          <mxGeometry x="300" y="1035.93" width="45" height="24.07" as="geometry" />
        </mxCell>
        <mxCell id="1225" value="" style="shape=table;html=1;whiteSpace=wrap;startSize=0;container=1;collapsible=0;childLayout=tableLayout;direction=east;fillColor=none;" parent="1" vertex="1">
          <mxGeometry x="336" y="1064.81" width="45" height="180" as="geometry" />
        </mxCell>
        <mxCell id="1226" style="shape=tableRow;horizontal=0;startSize=0;swimlaneHead=0;swimlaneBody=0;top=0;left=0;bottom=0;right=0;collapsible=0;dropTarget=0;fillColor=none;points=[[0,0.5],[1,0.5]];portConstraint=eastwest;" parent="1225" vertex="1">
          <mxGeometry width="45" height="20" as="geometry" />
        </mxCell>
        <mxCell id="1227" value="&lt;font data-font-src=&quot;https://fonts.googleapis.com/css?family=Linux+Libertine&quot; face=&quot;Linux Libertine&quot;&gt;&lt;i&gt;value&lt;/i&gt;&lt;/font&gt;" style="shape=partialRectangle;html=1;whiteSpace=wrap;connectable=0;fillColor=none;top=0;left=0;bottom=0;right=0;overflow=hidden;" parent="1226" vertex="1">
          <mxGeometry width="45" height="20" as="geometry">
            <mxRectangle width="45" height="20" as="alternateBounds" />
          </mxGeometry>
        </mxCell>
        <mxCell id="1228" style="shape=tableRow;horizontal=0;startSize=0;swimlaneHead=0;swimlaneBody=0;top=0;left=0;bottom=0;right=0;collapsible=0;dropTarget=0;fillColor=none;points=[[0,0.5],[1,0.5]];portConstraint=eastwest;" parent="1225" vertex="1">
          <mxGeometry y="20" width="45" height="20" as="geometry" />
        </mxCell>
        <mxCell id="1229" value="&lt;font style=&quot;font-size: 14px;&quot;&gt;&lt;span style=&quot;font-family: &amp;quot;Linux Libertine&amp;quot;;&quot;&gt;R&lt;/span&gt;&lt;span style=&quot;border-color: var(--border-color); font-family: &amp;quot;Linux Libertine&amp;quot;; background-color: rgb(255, 242, 204);&quot;&gt;[31]&lt;/span&gt;&lt;/font&gt;" style="shape=partialRectangle;html=1;whiteSpace=wrap;connectable=0;fillColor=none;top=0;left=0;bottom=0;right=0;overflow=hidden;" parent="1228" vertex="1">
          <mxGeometry width="45" height="20" as="geometry">
            <mxRectangle width="45" height="20" as="alternateBounds" />
          </mxGeometry>
        </mxCell>
        <mxCell id="1230" style="shape=tableRow;horizontal=0;startSize=0;swimlaneHead=0;swimlaneBody=0;top=0;left=0;bottom=0;right=0;collapsible=0;dropTarget=0;fillColor=none;points=[[0,0.5],[1,0.5]];portConstraint=eastwest;" parent="1225" vertex="1">
          <mxGeometry y="40" width="45" height="20" as="geometry" />
        </mxCell>
        <mxCell id="1231" value="" style="shape=partialRectangle;html=1;whiteSpace=wrap;connectable=0;fillColor=none;top=0;left=0;bottom=0;right=0;overflow=hidden;" parent="1230" vertex="1">
          <mxGeometry width="45" height="20" as="geometry">
            <mxRectangle width="45" height="20" as="alternateBounds" />
          </mxGeometry>
        </mxCell>
        <mxCell id="1232" style="shape=tableRow;horizontal=0;startSize=0;swimlaneHead=0;swimlaneBody=0;top=0;left=0;bottom=0;right=0;collapsible=0;dropTarget=0;fillColor=none;points=[[0,0.5],[1,0.5]];portConstraint=eastwest;" parent="1225" vertex="1">
          <mxGeometry y="60" width="45" height="20" as="geometry" />
        </mxCell>
        <mxCell id="1233" value="" style="shape=partialRectangle;html=1;whiteSpace=wrap;connectable=0;fillColor=none;top=0;left=0;bottom=0;right=0;overflow=hidden;strokeColor=#d6b656;" parent="1232" vertex="1">
          <mxGeometry width="45" height="20" as="geometry">
            <mxRectangle width="45" height="20" as="alternateBounds" />
          </mxGeometry>
        </mxCell>
        <mxCell id="1234" style="shape=tableRow;horizontal=0;startSize=0;swimlaneHead=0;swimlaneBody=0;top=0;left=0;bottom=0;right=0;collapsible=0;dropTarget=0;fillColor=none;points=[[0,0.5],[1,0.5]];portConstraint=eastwest;" parent="1225" vertex="1">
          <mxGeometry y="80" width="45" height="20" as="geometry" />
        </mxCell>
        <mxCell id="1235" value="" style="shape=partialRectangle;html=1;whiteSpace=wrap;connectable=0;fillColor=none;top=0;left=0;bottom=0;right=0;overflow=hidden;" parent="1234" vertex="1">
          <mxGeometry width="45" height="20" as="geometry">
            <mxRectangle width="45" height="20" as="alternateBounds" />
          </mxGeometry>
        </mxCell>
        <mxCell id="1236" style="shape=tableRow;horizontal=0;startSize=0;swimlaneHead=0;swimlaneBody=0;top=0;left=0;bottom=0;right=0;collapsible=0;dropTarget=0;fillColor=none;points=[[0,0.5],[1,0.5]];portConstraint=eastwest;" parent="1225" vertex="1">
          <mxGeometry y="100" width="45" height="20" as="geometry" />
        </mxCell>
        <mxCell id="1237" value="" style="shape=partialRectangle;html=1;whiteSpace=wrap;connectable=0;fillColor=none;top=0;left=0;bottom=0;right=0;overflow=hidden;" parent="1236" vertex="1">
          <mxGeometry width="45" height="20" as="geometry">
            <mxRectangle width="45" height="20" as="alternateBounds" />
          </mxGeometry>
        </mxCell>
        <mxCell id="1238" style="shape=tableRow;horizontal=0;startSize=0;swimlaneHead=0;swimlaneBody=0;top=0;left=0;bottom=0;right=0;collapsible=0;dropTarget=0;fillColor=none;points=[[0,0.5],[1,0.5]];portConstraint=eastwest;" parent="1225" vertex="1">
          <mxGeometry y="120" width="45" height="20" as="geometry" />
        </mxCell>
        <mxCell id="1239" value="" style="shape=partialRectangle;html=1;whiteSpace=wrap;connectable=0;fillColor=none;top=0;left=0;bottom=0;right=0;overflow=hidden;" parent="1238" vertex="1">
          <mxGeometry width="45" height="20" as="geometry">
            <mxRectangle width="45" height="20" as="alternateBounds" />
          </mxGeometry>
        </mxCell>
        <mxCell id="1240" style="shape=tableRow;horizontal=0;startSize=0;swimlaneHead=0;swimlaneBody=0;top=0;left=0;bottom=0;right=0;collapsible=0;dropTarget=0;fillColor=none;points=[[0,0.5],[1,0.5]];portConstraint=eastwest;" parent="1225" vertex="1">
          <mxGeometry y="140" width="45" height="20" as="geometry" />
        </mxCell>
        <mxCell id="1241" value="" style="shape=partialRectangle;html=1;whiteSpace=wrap;connectable=0;fillColor=none;top=0;left=0;bottom=0;right=0;overflow=hidden;" parent="1240" vertex="1">
          <mxGeometry width="45" height="20" as="geometry">
            <mxRectangle width="45" height="20" as="alternateBounds" />
          </mxGeometry>
        </mxCell>
        <mxCell id="1242" style="shape=tableRow;horizontal=0;startSize=0;swimlaneHead=0;swimlaneBody=0;top=0;left=0;bottom=0;right=0;collapsible=0;dropTarget=0;fillColor=none;points=[[0,0.5],[1,0.5]];portConstraint=eastwest;" parent="1225" vertex="1">
          <mxGeometry y="160" width="45" height="20" as="geometry" />
        </mxCell>
        <mxCell id="1243" value="&lt;span style=&quot;border-color: var(--border-color); font-size: 14px; font-family: &amp;quot;Linux Libertine&amp;quot;;&quot;&gt;R&lt;/span&gt;&lt;span style=&quot;border-color: var(--border-color); font-size: 14px; font-family: &amp;quot;Linux Libertine&amp;quot;; background-color: rgb(102, 204, 0);&quot;&gt;[44]&lt;/span&gt;" style="shape=partialRectangle;html=1;whiteSpace=wrap;connectable=0;fillColor=none;top=0;left=0;bottom=0;right=0;overflow=hidden;strokeColor=#36393d;" parent="1242" vertex="1">
          <mxGeometry width="45" height="20" as="geometry">
            <mxRectangle width="45" height="20" as="alternateBounds" />
          </mxGeometry>
        </mxCell>
        <mxCell id="1248" style="edgeStyle=orthogonalEdgeStyle;html=1;entryX=1;entryY=0.5;entryDx=0;entryDy=0;strokeColor=#FFB366;fontFamily=Linux Libertine;fontSource=https%3A%2F%2Ffonts.googleapis.com%2Fcss%3Ffamily%3DLinux%2BLibertine;startArrow=blockThin;startFill=1;endArrow=blockThin;endFill=1;" parent="1" source="1246" target="1108" edge="1">
          <mxGeometry relative="1" as="geometry" />
        </mxCell>
        <mxCell id="1246" value="" style="rounded=0;whiteSpace=wrap;html=1;labelBackgroundColor=#FFCCCC;fontFamily=Linux Libertine;fontSource=https%3A%2F%2Ffonts.googleapis.com%2Fcss%3Ffamily%3DLinux%2BLibertine;fillColor=none;" parent="1" vertex="1">
          <mxGeometry x="185.51" y="1071.07" width="45" height="20" as="geometry" />
        </mxCell>
        <mxCell id="1247" value="" style="rounded=0;whiteSpace=wrap;html=1;labelBackgroundColor=#FFCCCC;fontFamily=Linux Libertine;fontSource=https%3A%2F%2Ffonts.googleapis.com%2Fcss%3Ffamily%3DLinux%2BLibertine;fillColor=none;" parent="1" vertex="1">
          <mxGeometry x="185.74" y="1211.07" width="45" height="20" as="geometry" />
        </mxCell>
        <mxCell id="1249" style="edgeStyle=orthogonalEdgeStyle;html=1;entryX=1;entryY=0.5;entryDx=0;entryDy=0;strokeColor=#FFB366;fontFamily=Linux Libertine;fontSource=https%3A%2F%2Ffonts.googleapis.com%2Fcss%3Ffamily%3DLinux%2BLibertine;fontSize=14;startArrow=blockThin;startFill=1;endArrow=blockThin;endFill=1;" parent="1" source="1228" target="1165" edge="1">
          <mxGeometry relative="1" as="geometry" />
        </mxCell>
        <mxCell id="967" value="&lt;span style=&quot;font-family: &amp;quot;Linux Libertine&amp;quot;; font-style: normal; font-variant-ligatures: normal; font-variant-caps: normal; font-weight: 400; letter-spacing: normal; orphans: 2; text-align: center; text-indent: 0px; text-transform: none; widows: 2; word-spacing: 0px; -webkit-text-stroke-width: 0px; text-decoration-thickness: initial; text-decoration-style: initial; text-decoration-color: initial; float: none; display: inline !important;&quot;&gt;&lt;font color=&quot;#cc0000&quot; style=&quot;font-size: 12px;&quot;&gt;Data Forward R[31]&lt;/font&gt;&lt;/span&gt;" style="text;whiteSpace=wrap;html=1;fontSize=12;fontFamily=Linux Libertine;" parent="1" vertex="1">
          <mxGeometry x="300" y="976.95" width="104" height="26.7" as="geometry" />
        </mxCell>
        <mxCell id="Us-EvBeyhVD1tXAe2ULp-1252" style="edgeStyle=orthogonalEdgeStyle;rounded=1;orthogonalLoop=1;jettySize=auto;html=1;entryX=0.374;entryY=0.034;entryDx=0;entryDy=0;entryPerimeter=0;curved=0;exitX=0.862;exitY=0.978;exitDx=0;exitDy=0;exitPerimeter=0;" edge="1" parent="1" source="944" target="949">
          <mxGeometry relative="1" as="geometry">
            <mxPoint x="383.53" y="964.65" as="sourcePoint" />
            <mxPoint x="220.24000000000004" y="999.67" as="targetPoint" />
            <Array as="points">
              <mxPoint x="352" y="965" />
              <mxPoint x="352" y="981" />
              <mxPoint x="205" y="981" />
            </Array>
          </mxGeometry>
        </mxCell>
        <mxCell id="Us-EvBeyhVD1tXAe2ULp-1253" value="&lt;font color=&quot;#cc0000&quot;&gt;&lt;span style=&quot;font-family: &amp;quot;Linux Libertine&amp;quot;; font-size: 12px; font-style: normal; font-variant-ligatures: normal; font-variant-caps: normal; font-weight: 400; letter-spacing: normal; orphans: 2; text-align: center; text-indent: 0px; text-transform: none; widows: 2; word-spacing: 0px; -webkit-text-stroke-width: 0px; white-space: normal; text-decoration-thickness: initial; text-decoration-style: initial; text-decoration-color: initial; float: none; display: inline !important;&quot;&gt;Compare &lt;/span&gt;&lt;span style=&quot;font-family: &amp;quot;Linux Libertine&amp;quot;; font-size: 12px; font-variant-ligatures: normal; font-variant-caps: normal; font-weight: 400; letter-spacing: normal; orphans: 2; text-align: center; text-indent: 0px; text-transform: none; widows: 2; word-spacing: 0px; -webkit-text-stroke-width: 0px; white-space: normal; text-decoration-thickness: initial; text-decoration-style: initial; text-decoration-color: initial; float: none; display: inline !important;&quot;&gt;&lt;i&gt;src&lt;/i&gt;&lt;/span&gt;&lt;/font&gt;&lt;div&gt;&lt;span style=&quot;font-family: &amp;quot;Linux Libertine&amp;quot;; font-size: 12px; font-style: normal; font-variant-ligatures: normal; font-variant-caps: normal; font-weight: 400; letter-spacing: normal; orphans: 2; text-align: center; text-indent: 0px; text-transform: none; widows: 2; word-spacing: 0px; -webkit-text-stroke-width: 0px; white-space: normal; text-decoration-thickness: initial; text-decoration-style: initial; text-decoration-color: initial; float: none; display: inline !important;&quot;&gt;&lt;font color=&quot;#cc0000&quot;&gt;between pipelines&lt;/font&gt;&lt;/span&gt;&lt;/div&gt;" style="text;whiteSpace=wrap;html=1;" vertex="1" parent="1">
          <mxGeometry x="7" y="1118.33" width="95" height="36" as="geometry" />
        </mxCell>
      </root>
    </mxGraphModel>
  </diagram>
</mxfile>
